<svg xmlns="http://www.w3.org/2000/svg" xmlns:xlink="http://www.w3.org/1999/xlink" width="500" zoomAndPan="magnify" viewBox="0 0 375 374.999991" height="500" preserveAspectRatio="xMidYMid meet" version="1.0"><defs><g/><clipPath id="id1"><path d="M 3.523438 3.523438 L 371.773438 3.523438 L 371.773438 371.773438 L 3.523438 371.773438 Z M 3.523438 3.523438 " clip-rule="nonzero"/></clipPath><clipPath id="id2"><path d="M 137.453125 112.5 L 237.203125 112.5 L 237.203125 262.5 L 137.453125 262.5 Z M 137.453125 112.5 " clip-rule="nonzero"/></clipPath></defs><g clip-path="url(#id1)"><path fill="#ffde59" d="M 187.648438 3.523438 C 85.957031 3.523438 3.523438 85.957031 3.523438 187.648438 C 3.523438 289.335938 85.957031 371.773438 187.648438 371.773438 C 289.335938 371.773438 371.773438 289.335938 371.773438 187.648438 C 371.773438 85.957031 289.335938 3.523438 187.648438 3.523438 " fill-opacity="1" fill-rule="nonzero"/></g><g fill="#ffffff" fill-opacity="1"><g transform="translate(184.331874, 191.773272)"><g><path d="M 4.546875 -0.96875 C 4.367188 -0.582031 4.125 -0.304688 3.8125 -0.140625 C 3.507812 0.0234375 3.132812 0.109375 2.6875 0.109375 C 1.925781 0.109375 1.367188 -0.144531 1.015625 -0.65625 C 0.660156 -1.164062 0.484375 -1.9375 0.484375 -2.96875 C 0.484375 -5.0625 1.21875 -6.109375 2.6875 -6.109375 C 3.132812 -6.109375 3.507812 -6.023438 3.8125 -5.859375 C 4.125 -5.691406 4.367188 -5.425781 4.546875 -5.0625 L 4.5625 -5.0625 L 4.546875 -5.734375 L 4.546875 -8.234375 L 5.546875 -8.234375 L 5.546875 -1.234375 C 5.546875 -0.609375 5.554688 -0.195312 5.578125 0 L 4.625 0 C 4.613281 -0.0625 4.601562 -0.195312 4.59375 -0.40625 C 4.582031 -0.625 4.578125 -0.8125 4.578125 -0.96875 Z M 1.53125 -3 C 1.53125 -2.164062 1.640625 -1.566406 1.859375 -1.203125 C 2.078125 -0.835938 2.4375 -0.65625 2.9375 -0.65625 C 3.5 -0.65625 3.90625 -0.847656 4.15625 -1.234375 C 4.414062 -1.628906 4.546875 -2.242188 4.546875 -3.078125 C 4.546875 -3.867188 4.414062 -4.445312 4.15625 -4.8125 C 3.90625 -5.1875 3.503906 -5.375 2.953125 -5.375 C 2.453125 -5.375 2.085938 -5.1875 1.859375 -4.8125 C 1.640625 -4.445312 1.53125 -3.84375 1.53125 -3 Z M 1.53125 -3 "/></g></g></g><g fill="#000000" fill-opacity="1"><g transform="translate(159.195574, 288.546013)"><g><path d="M -7 8.75 L -9.890625 6.96875 L -25.90625 32.84375 L -23.015625 34.625 L -28.90625 44.15625 L -52.328125 29.6875 C -58.742188 25.707031 -62.753906 20.785156 -64.359375 14.921875 C -65.972656 9.066406 -64.332031 2.179688 -59.4375 -5.734375 C -54.539062 -13.660156 -49.109375 -18.210938 -43.140625 -19.390625 C -37.179688 -20.566406 -30.992188 -19.164062 -24.578125 -15.1875 L -1.15625 -0.71875 Z M -29.375 -5.078125 C -30.675781 -5.890625 -31.867188 -6.15625 -32.953125 -5.875 C -34.046875 -5.59375 -35.039062 -4.71875 -35.9375 -3.25 L -46.71875 14.171875 C -48.476562 17.015625 -48.050781 19.25 -45.4375 20.875 L -42.09375 22.9375 L -26.03125 -3.015625 Z M -29.375 -5.078125 "/></g></g></g><g fill="#000000" fill-opacity="1"><g transform="translate(117.859436, 264.977218)"><g><path d="M -35.984375 -37.96875 L -37.390625 -40.296875 L -27.875 -46.0625 L -14.109375 -23.328125 L -23.625 -17.5625 L -25.734375 -21.03125 L -29.8125 -17.3125 L -25.03125 -9.421875 L -19.828125 -11.296875 L -21.9375 -14.765625 L -12.421875 -20.53125 L -0.421875 -0.6875 L -9.9375 5.078125 L -11.34375 2.75 L -52.890625 14.484375 L -65.671875 -6.625 Z M -31.96875 -6.984375 L -35.1875 -12.3125 L -45.296875 -2.953125 L -44.953125 -2.375 Z M -31.96875 -6.984375 "/></g></g></g><g fill="#000000" fill-opacity="1"><g transform="translate(88.687122, 227.32744)"><g><path d="M -39.84375 -77.109375 L -39.921875 -73.71875 L -9.421875 -73.015625 L -9.34375 -76.40625 L 1.78125 -76.140625 L 1.1875 -50.5 L -9.9375 -50.765625 L -9.859375 -54.03125 L -33.578125 -54.578125 L 0.984375 -42.234375 L 0.75 -32.1875 L -34.03125 -21.15625 L -10.65625 -20.609375 L -10.578125 -23.859375 L 0.546875 -23.59375 L 0.03125 -1.359375 L -11.09375 -1.625 L -11.015625 -5.015625 L -41.515625 -5.71875 L -41.59375 -2.328125 L -52.71875 -2.59375 L -51.984375 -33.640625 L -30.65625 -40.1875 L -51.671875 -47.46875 L -50.96875 -77.375 Z M -39.84375 -77.109375 "/></g></g></g><g fill="#000000" fill-opacity="1"><g transform="translate(91.854149, 158.855321)"><g><path d="M 0.734375 -1.140625 L -8.65625 -7.09375 L -6.84375 -9.96875 L -32.625 -26.3125 L -34.4375 -23.4375 L -43.828125 -29.390625 L -19.328125 -68.046875 L -2.03125 -57.078125 L -10.171875 -44.25 L -18.078125 -49.265625 L -22.46875 -42.34375 L -13.40625 -36.609375 L -10.203125 -41.65625 L -3.671875 -37.515625 L -6.875 -32.46875 L 3.3125 -26 L 7.703125 -32.921875 L -1.34375 -38.65625 L 6.796875 -51.484375 L 25.234375 -39.796875 Z M 0.734375 -1.140625 "/></g></g></g><g fill="#000000" fill-opacity="1"><g transform="translate(116.672745, 122.483571)"><g/></g></g><g fill="#000000" fill-opacity="1"><g transform="translate(127.069029, 109.388007)"><g><path d="M 25.21875 -8.875 C 18.613281 -6.28125 12.9375 -5.726562 8.1875 -7.21875 C 3.445312 -8.71875 -0.203125 -12.726562 -2.765625 -19.25 L -11.0625 -40.390625 L -14.21875 -39.140625 L -18.296875 -49.5 L 5.0625 -58.671875 L 9.140625 -48.3125 L 6.625 -47.328125 L 16.1875 -22.96875 C 16.738281 -21.570312 17.441406 -20.671875 18.296875 -20.265625 C 19.160156 -19.859375 20.207031 -19.894531 21.4375 -20.375 C 22.65625 -20.851562 23.441406 -21.535156 23.796875 -22.421875 C 24.148438 -23.304688 24.050781 -24.445312 23.5 -25.84375 L 13.9375 -50.203125 L 11.40625 -49.21875 L 7.328125 -59.578125 L 28.984375 -68.078125 L 33.0625 -57.71875 L 29.90625 -56.484375 L 38.203125 -35.34375 C 40.765625 -28.820312 40.867188 -23.421875 38.515625 -19.140625 C 36.171875 -14.859375 31.738281 -11.4375 25.21875 -8.875 Z M 25.21875 -8.875 "/></g></g></g><g fill="#000000" fill-opacity="1"><g transform="translate(168.578783, 89.608061)"><g><path d="M 46.921875 -47.0625 L 68.96875 -44.1875 L 67.53125 -33.15625 L 64.171875 -33.59375 L 58.765625 7.6875 L 39.875 5.21875 L 24.140625 -27.671875 L 21.609375 -8.390625 L 24.828125 -7.96875 L 23.390625 3.0625 L 1.34375 0.171875 L 2.78125 -10.859375 L 6.140625 -10.421875 L 10.109375 -40.671875 L 6.75 -41.109375 L 8.1875 -52.140625 L 32.46875 -48.953125 L 46.609375 -19.671875 L 48.703125 -35.609375 L 45.484375 -36.03125 Z M 46.921875 -47.0625 "/></g></g></g><g fill="#000000" fill-opacity="1"><g transform="translate(225.596431, 100.047923)"><g/></g></g><g fill="#000000" fill-opacity="1"><g transform="translate(242.588511, 101.070247)"><g><path d="M 79.03125 35.875 L 77 33.15625 L 52.59375 51.484375 L 54.625 54.203125 L 45.734375 60.890625 L 30.34375 40.390625 L 39.234375 33.703125 L 41.1875 36.3125 L 60.171875 22.0625 L 25.375 33.78125 L 19.34375 25.75 L 39.8125 -4.46875 L 21.109375 9.578125 L 23.0625 12.171875 L 14.171875 18.859375 L 0.8125 1.09375 L 9.703125 -5.59375 L 11.75 -2.890625 L 36.15625 -21.21875 L 34.109375 -23.921875 L 43 -30.59375 L 61.65625 -5.765625 L 48.96875 12.59375 L 69.96875 5.296875 L 87.921875 29.203125 Z M 79.03125 35.875 "/></g></g></g><g fill="#000000" fill-opacity="1"><g transform="translate(283.116271, 156.132494)"><g><path d="M 15.015625 50.109375 L 15.21875 52.828125 L 4.125 53.6875 L 2.09375 27.1875 L 13.1875 26.328125 L 13.5 30.375 L 18.8125 28.890625 L 18.109375 19.6875 L 12.625 19.015625 L 12.9375 23.0625 L 1.84375 23.921875 L 0.0625 0.8125 L 11.15625 -0.046875 L 11.359375 2.65625 L 53.765625 10.890625 L 55.65625 35.515625 Z M 25.390625 20.640625 L 25.875 26.859375 L 39.109375 23.03125 L 39.0625 22.359375 Z M 25.390625 20.640625 "/></g></g></g><g fill="#000000" fill-opacity="1"><g transform="translate(288.207049, 203.617246)"><g><path d="M 13.90625 61.84375 L 18.328125 51.0625 L 23.21875 53.078125 L 24.875 49.0625 L -3.34375 37.46875 L -5.15625 41.859375 L -15.453125 37.640625 L -4.640625 11.296875 L 5.65625 15.515625 L 3.859375 19.90625 L 32.078125 31.5 L 33.734375 27.484375 L 28.84375 25.46875 L 33.265625 14.671875 L 48.453125 20.90625 L 29.09375 68.078125 Z M 13.90625 61.84375 "/></g></g></g><g fill="#000000" fill-opacity="1"><g transform="translate(271.512258, 246.835752)"><g><path d="M -1 0.921875 L 6.515625 9.125 L 4.015625 11.40625 L 24.609375 33.921875 L 27.109375 31.640625 L 34.625 39.84375 L 0.859375 70.734375 L -12.96875 55.625 L -1.765625 45.375 L 4.546875 52.28125 L 10.59375 46.75 L 3.359375 38.84375 L -1.03125 42.859375 L -6.25 37.15625 L -1.859375 33.140625 L -10 24.234375 L -16.046875 29.765625 L -8.828125 37.671875 L -20.03125 47.921875 L -34.765625 31.8125 Z M -1 0.921875 "/></g></g></g><g fill="#000000" fill-opacity="1"><g transform="translate(238.320927, 275.448164)"><g><path d="M 2.03125 15.375 L 19.078125 45.5625 L 20.46875 48.65625 L 2 56.984375 L 0.609375 53.890625 L -10.6875 21.109375 Z M -3.453125 1.5625 L 1.125 11.703125 L -12.859375 18.015625 L -17.4375 7.875 Z M -3.453125 1.5625 "/></g></g></g><g clip-path="url(#id2)"><path fill="#3c3c3b" d="M 236.429688 190.9375 C 235.773438 191.089844 235.082031 191.152344 234.417969 191.152344 L 236.199219 195.632812 C 236.300781 195.878906 236.28125 196.148438 236.171875 196.371094 C 236.289062 196.554688 236.363281 196.773438 236.390625 197.007812 C 236.460938 197.570312 236.25 198.144531 235.84375 198.511719 C 235.460938 198.851562 234.953125 199.03125 234.371094 199.03125 C 234.171875 199.03125 233.964844 199.011719 233.75 198.96875 C 233.511719 198.921875 233.160156 198.824219 232.867188 198.546875 C 232.519531 198.214844 232.425781 197.78125 232.386719 197.597656 C 232.300781 197.195312 232.210938 196.601562 232.425781 196.007812 C 232.648438 195.378906 233.207031 194.898438 233.902344 194.726562 L 232.195312 190.449219 C 232.070312 190.144531 232.125 189.796875 232.335938 189.542969 C 232.542969 189.285156 232.875 189.167969 233.199219 189.230469 C 234.128906 189.40625 235.105469 189.386719 236.023438 189.175781 C 236.507812 189.066406 236.992188 189.371094 237.101562 189.855469 C 237.214844 190.34375 236.914062 190.828125 236.429688 190.9375 Z M 228.40625 198.945312 C 226.4375 198.734375 224.867188 200.285156 224.050781 201.808594 L 223.984375 201.933594 C 223.847656 202.195312 223.703125 202.46875 223.5625 202.554688 C 223.445312 202.625 223.191406 202.65625 223.023438 202.675781 C 222.8125 202.703125 222.605469 202.726562 222.394531 202.75 C 222.222656 202.773438 222.050781 202.789062 221.875 202.8125 C 221.835938 202.40625 221.789062 202.003906 221.734375 201.605469 C 221.714844 201.480469 221.695312 201.355469 221.675781 201.230469 C 221.632812 200.945312 221.585938 200.664062 221.535156 200.382812 C 221.511719 200.25 221.484375 200.113281 221.460938 199.980469 C 221.40625 199.691406 221.347656 199.40625 221.285156 199.121094 C 221.257812 199.003906 221.234375 198.890625 221.210938 198.773438 C 221.054688 198.097656 220.878906 197.429688 220.6875 196.757812 C 220.667969 196.6875 220.652344 196.621094 220.628906 196.554688 C 220.625 196.535156 220.621094 196.515625 220.617188 196.5 C 220.5 196.101562 220.375 195.707031 220.25 195.316406 C 220.214844 195.203125 220.175781 195.089844 220.140625 194.980469 C 220.046875 194.691406 219.949219 194.40625 219.851562 194.117188 C 219.808594 193.992188 219.765625 193.867188 219.71875 193.742188 C 219.617188 193.457031 219.515625 193.167969 219.410156 192.882812 C 219.371094 192.777344 219.332031 192.667969 219.292969 192.5625 C 219.132812 192.136719 218.972656 191.710938 218.804688 191.285156 C 218.769531 191.195312 218.734375 191.101562 218.699219 191.011719 C 218.242188 189.859375 217.765625 188.710938 217.285156 187.566406 C 217.261719 187.519531 217.246094 187.472656 217.226562 187.425781 C 217.226562 187.425781 217.226562 187.425781 217.226562 187.421875 C 217.199219 187.363281 217.175781 187.308594 217.152344 187.25 C 217.152344 187.246094 217.148438 187.246094 217.148438 187.242188 C 217.015625 186.921875 216.882812 186.605469 216.742188 186.28125 C 216.296875 185.226562 215.851562 184.171875 215.417969 183.117188 C 215.027344 182.164062 212.5 177.40625 209.796875 173.136719 C 209.726562 173.027344 209.660156 172.921875 209.589844 172.816406 C 209.578125 172.699219 209.558594 172.582031 209.539062 172.46875 C 209.53125 172.429688 209.523438 172.394531 209.515625 172.359375 C 209.496094 172.28125 209.476562 172.199219 209.460938 172.121094 C 209.453125 172.082031 209.4375 172.042969 209.429688 172.003906 C 209.410156 171.925781 209.386719 171.851562 209.363281 171.773438 C 209.351562 171.742188 209.339844 171.707031 209.332031 171.679688 C 209.296875 171.570312 209.257812 171.460938 209.214844 171.355469 C 209.183594 171.269531 209.148438 171.183594 209.113281 171.101562 C 209.109375 171.089844 209.109375 171.085938 209.105469 171.074219 C 209.097656 171.0625 209.097656 171.054688 209.089844 171.042969 C 209.023438 170.890625 208.957031 170.742188 208.894531 170.597656 C 207.660156 167.867188 206.441406 166.050781 204.949219 164.714844 C 203.570312 163.484375 201.945312 162.648438 199.972656 162.171875 C 196.035156 161.210938 191.941406 161.28125 187.988281 161.347656 L 187.828125 161.347656 C 186.894531 161.363281 185.949219 161.414062 184.996094 161.496094 C 184.800781 161.511719 184.605469 161.53125 184.40625 161.554688 C 183.984375 161.59375 183.554688 161.644531 183.128906 161.695312 C 183.058594 161.707031 182.988281 161.714844 182.917969 161.722656 C 182.644531 161.757812 182.375 161.796875 182.101562 161.835938 C 181.878906 161.871094 181.652344 161.902344 181.429688 161.941406 C 180.664062 162.066406 179.886719 162.210938 179.101562 162.375 C 178.871094 162.421875 178.640625 162.46875 178.40625 162.519531 C 177.894531 162.636719 177.382812 162.753906 176.863281 162.882812 C 176.863281 162.878906 176.863281 162.878906 176.863281 162.878906 C 176.855469 162.867188 176.851562 162.855469 176.84375 162.847656 C 175.96875 161.242188 175.046875 159.675781 174.140625 158.136719 C 173.066406 156.316406 171.960938 154.433594 170.960938 152.546875 C 169.140625 149.105469 166.929688 145.65625 164.785156 142.324219 C 163.109375 139.710938 161.371094 137.003906 159.871094 134.371094 C 159.792969 134.226562 159.707031 134.089844 159.625 133.953125 C 159.566406 133.859375 159.507812 133.765625 159.449219 133.671875 C 159.46875 133.660156 159.488281 133.648438 159.507812 133.632812 C 159.660156 133.523438 159.945312 133.320312 160.125 132.976562 C 160.421875 132.402344 160.25 131.804688 160.171875 131.515625 C 160.058594 131.128906 159.925781 130.636719 159.621094 130.199219 C 159.199219 129.59375 158.5625 129.25 157.902344 129.28125 C 157.792969 129.285156 157.6875 129.300781 157.589844 129.324219 C 157.582031 129.324219 157.574219 129.324219 157.566406 129.324219 C 157.515625 129.335938 157.46875 129.355469 157.417969 129.371094 C 157.316406 129.402344 157.21875 129.441406 157.128906 129.480469 C 157.097656 129.496094 157.0625 129.507812 157.035156 129.523438 C 156.949219 129.566406 156.871094 129.605469 156.804688 129.644531 L 148.355469 116.648438 C 148.121094 116.292969 147.917969 115.925781 147.71875 115.574219 C 147.152344 114.566406 146.566406 113.523438 145.386719 112.730469 C 145.183594 112.59375 144.933594 112.546875 144.695312 112.597656 C 142.394531 113.089844 140.582031 114.742188 139.125 116.070312 C 138.300781 116.820312 137.457031 117.738281 137.484375 118.847656 C 137.503906 119.613281 137.914062 120.316406 138.742188 121 C 139.792969 121.863281 140.785156 122.925781 141.746094 123.949219 C 142.191406 124.425781 142.652344 124.921875 143.113281 125.390625 C 143.910156 126.199219 144.710938 127.007812 145.515625 127.816406 C 147.078125 129.398438 148.699219 131.03125 150.273438 132.652344 C 150.449219 132.835938 150.621094 133.023438 150.789062 133.214844 C 150.78125 133.222656 150.777344 133.230469 150.765625 133.238281 C 150.699219 133.304688 150.636719 133.382812 150.574219 133.464844 C 150.566406 133.472656 150.558594 133.484375 150.550781 133.496094 C 150.503906 133.5625 150.457031 133.640625 150.417969 133.722656 C 150.40625 133.742188 150.398438 133.757812 150.394531 133.773438 C 150.3125 133.949219 150.253906 134.15625 150.230469 134.402344 C 150.230469 134.410156 150.226562 134.414062 150.226562 134.425781 C 150.222656 134.476562 150.214844 134.527344 150.214844 134.578125 C 150.214844 134.644531 150.214844 134.714844 150.214844 134.789062 C 150.253906 135.59375 150.636719 136.304688 151.238281 136.695312 C 151.550781 136.894531 151.90625 137 152.269531 137 C 152.523438 137 152.78125 136.953125 153.027344 136.847656 C 153.164062 136.796875 153.300781 136.742188 153.433594 136.6875 C 153.574219 136.898438 153.707031 137.105469 153.84375 137.320312 C 153.96875 137.511719 154.09375 137.703125 154.21875 137.894531 C 154.28125 137.996094 154.34375 138.09375 154.40625 138.191406 C 154.640625 138.5625 154.875 138.9375 155.105469 139.308594 C 155.832031 140.46875 156.582031 141.667969 157.382812 142.816406 C 159.328125 145.597656 161.082031 148.625 162.777344 151.554688 C 163.703125 153.144531 164.65625 154.789062 165.628906 156.378906 C 167.234375 159 168.796875 161.691406 170.28125 164.386719 C 170.382812 164.570312 170.484375 164.761719 170.585938 164.949219 C 170.503906 164.984375 170.425781 165.019531 170.347656 165.058594 C 170.164062 165.140625 169.980469 165.226562 169.800781 165.308594 C 169.035156 165.675781 168.300781 166.0625 167.609375 166.476562 C 167.605469 166.476562 167.605469 166.480469 167.601562 166.480469 C 167.578125 166.492188 167.558594 166.507812 167.539062 166.519531 C 167.394531 166.605469 167.253906 166.695312 167.113281 166.785156 C 167.011719 166.847656 166.90625 166.914062 166.808594 166.976562 C 166.652344 167.082031 166.5 167.183594 166.351562 167.289062 C 165.878906 167.609375 165.429688 167.945312 165 168.296875 C 161.988281 170.757812 161.34375 176.488281 161.03125 179.242188 C 160.96875 179.789062 160.921875 180.375 161.078125 180.976562 C 161.125 181.152344 161.1875 181.320312 161.257812 181.480469 C 161.105469 181.933594 160.960938 182.390625 160.816406 182.84375 C 160.769531 182.996094 160.722656 183.144531 160.675781 183.292969 C 160.578125 183.609375 160.480469 183.925781 160.390625 184.242188 C 160.339844 184.40625 160.289062 184.566406 160.242188 184.730469 C 160.117188 185.160156 159.996094 185.59375 159.878906 186.023438 C 159.863281 186.074219 159.851562 186.125 159.835938 186.179688 C 159.792969 186.34375 159.75 186.503906 159.707031 186.667969 C 159.621094 187 159.53125 187.328125 159.449219 187.65625 C 159.328125 188.152344 159.207031 188.640625 159.097656 189.128906 C 159.09375 189.140625 159.09375 189.152344 159.089844 189.160156 C 159.070312 189.238281 159.054688 189.316406 159.039062 189.394531 C 158.929688 189.875 158.828125 190.351562 158.734375 190.820312 C 158.664062 191.152344 158.601562 191.484375 158.542969 191.808594 C 158.4375 192.363281 158.34375 192.917969 158.261719 193.445312 C 157.367188 199.285156 156.878906 203.175781 158.105469 209.285156 C 158.527344 211.40625 159.011719 213.128906 159.621094 214.714844 C 162.5 222.1875 169.421875 228.355469 177.6875 230.8125 C 178.101562 230.933594 178.523438 231.046875 178.945312 231.152344 C 178.957031 231.152344 178.96875 231.15625 178.980469 231.160156 C 179.234375 231.222656 179.488281 231.28125 179.746094 231.335938 C 179.917969 231.375 180.09375 231.410156 180.269531 231.449219 C 180.269531 231.449219 180.269531 231.449219 180.273438 231.449219 C 180.765625 231.546875 181.265625 231.636719 181.769531 231.710938 C 182.109375 231.761719 182.449219 231.808594 182.792969 231.851562 C 182.847656 231.859375 182.90625 231.867188 182.964844 231.875 C 183.3125 231.914062 183.667969 231.953125 184.019531 231.984375 C 184.019531 231.984375 184.019531 231.984375 184.023438 231.984375 C 184.535156 232.601562 185.046875 233.21875 185.554688 233.839844 C 185.59375 233.886719 185.628906 233.933594 185.667969 233.976562 C 185.667969 233.976562 185.671875 233.980469 185.671875 233.980469 C 186.402344 234.871094 187.125 235.765625 187.84375 236.65625 C 187.949219 236.785156 188.050781 236.914062 188.15625 237.042969 C 188.855469 237.910156 189.550781 238.78125 190.238281 239.640625 C 189.792969 240.082031 189.34375 240.511719 188.882812 240.9375 C 188.734375 241.074219 188.585938 241.214844 188.433594 241.351562 C 188.273438 241.5 188.109375 241.644531 187.945312 241.789062 C 187.582031 242.109375 187.214844 242.429688 186.84375 242.738281 C 186.222656 243.257812 185.183594 244.128906 184.464844 245.265625 C 184.433594 245.246094 184.398438 245.234375 184.363281 245.21875 C 184.324219 245.199219 184.285156 245.183594 184.246094 245.171875 C 184.183594 245.148438 184.117188 245.132812 184.050781 245.125 C 183.695312 245.082031 183.441406 245.234375 183.3125 245.316406 C 182.675781 245.597656 181.164062 246.625 180.988281 246.746094 C 179.097656 248.035156 178.855469 248.351562 178.910156 248.914062 C 179.078125 250.738281 180.054688 251.992188 180.914062 253.09375 C 181.382812 253.695312 181.828125 254.265625 182.140625 254.902344 C 182.273438 255.164062 182.523438 255.351562 182.8125 255.394531 L 183.101562 255.4375 C 183.949219 255.558594 184.40625 255.640625 184.855469 256.0625 C 185.230469 256.417969 185.523438 256.914062 185.828125 257.445312 C 186.34375 258.332031 186.925781 259.335938 188.078125 259.890625 C 190.261719 260.945312 192.566406 261.546875 195.121094 261.734375 C 195.179688 261.738281 195.238281 261.742188 195.304688 261.742188 C 196.089844 261.742188 197.136719 261.417969 197.714844 261.214844 L 197.808594 261.179688 C 198.109375 261.078125 198.480469 260.953125 198.820312 260.578125 C 199.363281 259.992188 199.394531 259.15625 199.417969 258.546875 C 199.421875 258.402344 199.425781 258.265625 199.441406 258.152344 C 199.621094 256.609375 198.835938 255.464844 197.113281 254.75 C 196.300781 254.414062 195.703125 254.199219 195.070312 253.972656 L 194.476562 253.757812 C 194.375 253.71875 194.28125 253.6875 194.191406 253.65625 C 193.859375 253.546875 193.75 253.507812 193.578125 253.332031 C 193.425781 253.175781 193.375 252.859375 193.449219 252.53125 C 193.46875 252.4375 193.523438 252.289062 193.574219 252.144531 C 193.714844 251.75 193.890625 251.265625 193.816406 250.757812 C 193.714844 250.046875 193.335938 249.566406 192.648438 249.277344 C 192.507812 249.21875 192.367188 249.175781 192.222656 249.144531 C 192.292969 249.007812 192.382812 248.871094 192.484375 248.742188 C 192.535156 248.679688 192.589844 248.613281 192.648438 248.546875 C 192.648438 248.542969 192.65625 248.539062 192.660156 248.535156 C 192.738281 248.445312 192.828125 248.355469 192.917969 248.265625 C 192.9375 248.246094 192.957031 248.226562 192.980469 248.207031 C 193.070312 248.117188 193.171875 248.027344 193.273438 247.933594 C 193.289062 247.917969 193.308594 247.90625 193.324219 247.894531 C 193.375 247.84375 193.433594 247.792969 193.492188 247.746094 C 193.5 247.738281 193.507812 247.734375 193.511719 247.726562 C 193.53125 247.710938 193.550781 247.695312 193.570312 247.675781 C 193.652344 247.609375 193.734375 247.539062 193.816406 247.46875 C 194.09375 247.234375 194.378906 246.996094 194.644531 246.746094 C 194.878906 246.527344 195.109375 246.304688 195.34375 246.082031 C 195.597656 246.421875 195.855469 246.765625 196.105469 247.109375 C 196.109375 247.117188 196.113281 247.121094 196.117188 247.125 C 196.242188 247.296875 196.367188 247.46875 196.488281 247.644531 C 196.589844 247.785156 196.691406 247.925781 196.789062 248.070312 C 196.828125 248.125 196.867188 248.179688 196.902344 248.234375 C 196.902344 248.234375 196.902344 248.238281 196.90625 248.238281 C 197.355469 248.886719 197.792969 249.542969 198.199219 250.214844 C 198.246094 250.289062 198.289062 250.367188 198.339844 250.441406 C 198.503906 250.714844 198.667969 250.996094 198.824219 251.273438 C 198.863281 251.339844 198.902344 251.40625 198.9375 251.476562 C 199.125 251.808594 199.304688 252.144531 199.476562 252.484375 C 199.511719 252.554688 199.546875 252.621094 199.578125 252.691406 C 199.628906 252.796875 199.675781 252.90625 199.726562 253.007812 C 199.8125 253.183594 199.894531 253.355469 199.976562 253.53125 C 200.019531 253.628906 200.0625 253.722656 200.105469 253.820312 C 200.257812 254.167969 200.40625 254.519531 200.542969 254.878906 L 200.585938 254.988281 C 200.753906 255.429688 200.9375 255.910156 201.195312 256.347656 C 201.152344 256.371094 201.113281 256.390625 201.074219 256.414062 C 201.066406 256.421875 201.054688 256.425781 201.042969 256.433594 C 201.019531 256.449219 201 256.460938 200.980469 256.480469 C 200.957031 256.496094 200.9375 256.511719 200.917969 256.527344 C 200.878906 256.558594 200.84375 256.589844 200.816406 256.621094 C 200.792969 256.644531 200.777344 256.667969 200.757812 256.6875 C 200.75 256.699219 200.738281 256.710938 200.730469 256.722656 C 200.714844 256.746094 200.703125 256.765625 200.6875 256.785156 C 200.679688 256.800781 200.671875 256.816406 200.664062 256.832031 C 200.65625 256.847656 200.644531 256.867188 200.636719 256.886719 C 200.625 256.917969 200.613281 256.945312 200.601562 256.972656 C 200.597656 256.976562 200.59375 256.984375 200.59375 256.988281 C 200.582031 257.019531 200.574219 257.054688 200.5625 257.082031 C 200.488281 257.378906 200.558594 257.632812 200.585938 257.738281 C 200.613281 257.824219 200.660156 258.019531 200.722656 258.28125 C 201.636719 261.96875 201.753906 262.453125 202.613281 262.453125 C 202.617188 262.453125 202.621094 262.453125 202.621094 262.453125 C 203.847656 262.449219 204.957031 262.082031 206.035156 261.726562 C 206.867188 261.453125 207.648438 261.195312 208.445312 261.113281 C 208.765625 261.078125 209.046875 260.871094 209.179688 260.574219 L 209.203125 260.515625 C 209.585938 259.632812 209.757812 259.3125 210.175781 259.160156 C 210.59375 259.011719 211.128906 259.136719 211.75 259.285156 C 212.496094 259.460938 213.339844 259.660156 214.230469 259.410156 C 216.140625 258.875 218.058594 258.292969 219.933594 257.671875 C 220.539062 257.476562 221.402344 256.949219 221.808594 256.660156 C 222.039062 256.5 222.382812 256.253906 222.597656 255.816406 C 222.914062 255.164062 222.671875 254.441406 222.492188 253.917969 C 222.445312 253.773438 222.394531 253.636719 222.375 253.539062 C 222.035156 252.0625 220.921875 250.761719 219.464844 250.148438 C 218.304688 249.660156 216.972656 249.585938 215.5 249.925781 C 215.320312 249.96875 215.140625 250.015625 214.960938 250.058594 C 214.550781 250.167969 214.164062 250.269531 213.796875 250.289062 C 213.523438 250.304688 213.019531 250.277344 212.6875 249.929688 C 212.597656 249.839844 212.503906 249.707031 212.402344 249.566406 C 212.164062 249.230469 211.863281 248.8125 211.375 248.5625 C 210.804688 248.277344 210.117188 248.304688 209.445312 248.640625 C 209.257812 248.730469 209.082031 248.847656 208.917969 248.976562 C 208.890625 249 208.859375 249.019531 208.832031 249.042969 C 208.746094 249.117188 208.667969 249.191406 208.589844 249.273438 C 208.566406 249.296875 208.542969 249.324219 208.519531 249.347656 C 208.496094 249.375 208.46875 249.402344 208.445312 249.433594 C 208.425781 249.453125 208.410156 249.476562 208.390625 249.5 C 208.265625 249.660156 208.152344 249.824219 208.058594 250.007812 C 208.058594 250.007812 208.058594 250.007812 208.058594 250.003906 C 207.84375 249.75 207.632812 249.496094 207.421875 249.242188 C 207.394531 249.207031 207.371094 249.171875 207.339844 249.140625 C 207.152344 248.910156 206.960938 248.671875 206.78125 248.4375 C 206.757812 248.40625 206.730469 248.375 206.707031 248.34375 C 206.421875 247.976562 206.140625 247.609375 205.863281 247.234375 C 205.804688 247.15625 205.742188 247.074219 205.683594 246.992188 C 205.414062 246.628906 205.148438 246.261719 204.882812 245.894531 C 204.855469 245.855469 204.824219 245.8125 204.792969 245.769531 C 204.742188 245.699219 204.691406 245.628906 204.640625 245.558594 C 204.53125 245.402344 204.417969 245.242188 204.308594 245.085938 C 204.265625 245.027344 204.21875 244.964844 204.179688 244.902344 C 204.089844 244.777344 204.003906 244.652344 203.914062 244.527344 C 203.847656 244.433594 203.78125 244.339844 203.71875 244.246094 C 203.679688 244.195312 203.640625 244.136719 203.601562 244.082031 C 203.417969 243.820312 203.238281 243.5625 203.054688 243.300781 C 202.339844 242.273438 201.601562 241.214844 200.855469 240.183594 C 200.96875 240.019531 201.074219 239.855469 201.183594 239.695312 C 201.234375 239.617188 201.285156 239.535156 201.335938 239.457031 C 201.449219 239.277344 201.554688 239.105469 201.65625 238.945312 C 201.660156 238.941406 201.660156 238.9375 201.664062 238.933594 C 201.714844 238.851562 201.757812 238.773438 201.804688 238.695312 C 201.804688 238.695312 201.804688 238.691406 201.804688 238.691406 C 201.820312 238.667969 201.832031 238.644531 201.847656 238.621094 C 201.894531 238.542969 201.9375 238.46875 201.976562 238.398438 C 202.246094 237.914062 202.453125 237.429688 202.613281 236.953125 C 202.640625 236.871094 202.671875 236.789062 202.695312 236.707031 C 202.824219 236.28125 202.910156 235.855469 202.964844 235.4375 C 202.984375 235.292969 203 235.148438 203.007812 235.007812 C 203.011719 234.976562 203.011719 234.945312 203.011719 234.917969 C 203.023438 234.777344 203.023438 234.640625 203.027344 234.503906 C 203.027344 234.34375 203.023438 234.1875 203.011719 234.03125 C 203.011719 233.984375 203.011719 233.9375 203.007812 233.886719 C 203.003906 233.839844 203 233.792969 202.996094 233.746094 C 202.984375 233.59375 202.96875 233.445312 202.949219 233.292969 C 202.945312 233.277344 202.941406 233.261719 202.9375 233.242188 C 202.917969 233.089844 202.890625 232.9375 202.863281 232.785156 C 202.859375 232.757812 202.855469 232.726562 202.847656 232.699219 C 202.785156 232.363281 202.699219 232.03125 202.605469 231.695312 C 202.605469 231.695312 202.605469 231.695312 202.605469 231.691406 C 202.492188 231.316406 202.367188 230.945312 202.226562 230.578125 C 202.097656 230.238281 201.953125 229.898438 201.804688 229.566406 C 202.25 229.40625 202.683594 229.238281 203.113281 229.066406 C 203.207031 229.03125 203.300781 228.996094 203.394531 228.957031 C 203.8125 228.789062 204.222656 228.613281 204.628906 228.433594 C 204.703125 228.398438 204.777344 228.367188 204.851562 228.332031 C 205.214844 228.167969 205.578125 228 205.933594 227.828125 C 206.003906 227.789062 206.078125 227.757812 206.148438 227.722656 C 206.539062 227.53125 206.917969 227.332031 207.292969 227.132812 C 207.382812 227.082031 207.480469 227.03125 207.574219 226.976562 C 207.949219 226.773438 208.324219 226.558594 208.691406 226.34375 C 208.699219 226.335938 208.707031 226.332031 208.714844 226.328125 C 208.753906 226.304688 208.789062 226.28125 208.828125 226.257812 C 209.636719 225.765625 210.417969 225.253906 211.164062 224.71875 C 211.519531 224.464844 211.867188 224.199219 212.207031 223.933594 C 212.238281 223.90625 212.273438 223.882812 212.304688 223.855469 C 212.3125 223.847656 212.324219 223.839844 212.332031 223.832031 C 213.0625 223.253906 213.757812 222.648438 214.414062 222.019531 C 214.710938 221.738281 214.996094 221.449219 215.277344 221.160156 C 215.3125 221.125 215.34375 221.089844 215.378906 221.050781 C 215.429688 221 215.476562 220.945312 215.523438 220.890625 C 215.78125 220.613281 216.035156 220.339844 216.277344 220.058594 C 216.363281 219.953125 216.449219 219.851562 216.53125 219.746094 C 217.289062 218.835938 217.976562 217.894531 218.582031 216.914062 C 218.804688 216.558594 219.015625 216.199219 219.214844 215.835938 C 219.371094 215.546875 219.523438 215.257812 219.664062 214.96875 C 219.707031 214.882812 219.75 214.800781 219.789062 214.710938 C 219.894531 214.5 219.992188 214.285156 220.089844 214.070312 C 220.128906 213.988281 220.164062 213.902344 220.203125 213.820312 C 220.324219 213.539062 220.4375 213.257812 220.546875 212.976562 C 220.550781 212.957031 220.558594 212.945312 220.566406 212.925781 C 220.777344 212.363281 220.960938 211.808594 221.125 211.253906 C 221.152344 211.148438 221.1875 211.042969 221.210938 210.9375 C 221.4375 210.121094 221.605469 209.3125 221.726562 208.503906 C 221.726562 208.503906 221.726562 208.503906 221.726562 208.5 C 221.785156 208.125 221.835938 207.75 221.871094 207.378906 C 221.875 207.359375 221.875 207.34375 221.875 207.324219 C 221.941406 206.621094 221.976562 205.921875 221.976562 205.21875 C 221.976562 205.019531 221.976562 204.816406 221.972656 204.617188 C 222.175781 204.59375 222.382812 204.566406 222.589844 204.542969 C 222.804688 204.515625 223.019531 204.492188 223.234375 204.464844 C 223.644531 204.414062 224.082031 204.34375 224.496094 204.089844 C 225.054688 203.742188 225.339844 203.207031 225.566406 202.777344 L 225.628906 202.660156 C 226.140625 201.703125 227.117188 200.625 228.207031 200.742188 C 228.695312 200.792969 229.144531 200.433594 229.199219 199.9375 C 229.257812 199.441406 228.902344 198.996094 228.40625 198.945312 Z M 228.40625 198.945312 " fill-opacity="1" fill-rule="nonzero"/></g><path fill="#aa511f" d="M 199.726562 238.640625 L 195.863281 233.375 C 195.785156 232.660156 195.558594 231.984375 195.273438 231.359375 C 196.890625 231.050781 198.503906 230.644531 200.09375 230.148438 C 201.234375 232.597656 201.816406 235.003906 200.410156 237.527344 C 200.246094 237.816406 200.003906 238.214844 199.726562 238.640625 Z M 191.375 241.0625 C 190.289062 242.128906 189.164062 243.160156 188 244.128906 C 186.890625 245.058594 185.878906 246.050781 185.574219 247.128906 C 185.585938 247.175781 185.601562 247.222656 185.613281 247.273438 C 185.773438 247.824219 185.972656 248.511719 186.277344 248.714844 C 186.535156 248.886719 186.820312 248.894531 187.304688 248.886719 C 187.851562 248.878906 188.535156 248.867188 189.214844 249.28125 C 189.460938 249.429688 189.652344 249.613281 189.804688 249.8125 C 189.933594 249.703125 190.074219 249.601562 190.226562 249.503906 C 190.234375 249.503906 190.238281 249.5 190.25 249.492188 C 190.453125 247.941406 191.660156 246.921875 192.660156 246.078125 C 192.929688 245.855469 193.183594 245.640625 193.410156 245.425781 C 193.6875 245.167969 193.957031 244.902344 194.230469 244.644531 C 193.707031 243.976562 193.179688 243.316406 192.652344 242.660156 Z M 199.164062 240.917969 L 192.476562 231.804688 C 190.742188 232.023438 189.011719 232.132812 187.316406 232.132812 C 187.035156 232.132812 186.757812 232.125 186.480469 232.121094 C 188.453125 234.515625 190.394531 236.9375 192.285156 239.308594 L 194.058594 241.527344 C 197.171875 245.414062 200.382812 249.425781 202.226562 254.226562 L 202.269531 254.339844 C 202.476562 254.878906 202.671875 255.390625 202.960938 255.738281 C 203.527344 255.574219 204.15625 255.382812 204.46875 255.09375 C 204.71875 254.859375 204.90625 254.425781 205.097656 253.96875 C 205.410156 253.242188 205.761719 252.421875 206.5625 251.957031 C 206.757812 251.84375 206.960938 251.765625 207.164062 251.710938 C 205.113281 249.386719 203.332031 246.835938 201.589844 244.335938 C 200.800781 243.207031 199.980469 242.035156 199.164062 240.917969 Z M 220.203125 204.960938 C 220.222656 208.253906 219.507812 211.574219 217.648438 214.972656 C 210.691406 227.6875 191.085938 232.910156 178.207031 229.082031 C 170.460938 226.785156 163.984375 221.03125 161.304688 214.066406 C 160.734375 212.582031 160.277344 210.949219 159.875 208.933594 C 158.707031 203.109375 159.15625 199.539062 160.046875 193.726562 C 160.539062 190.523438 161.4375 186.851562 162.582031 183.25 C 166.5625 187.5625 172.308594 189.921875 179.257812 190.070312 C 179.722656 190.078125 180.207031 190.082031 180.703125 190.082031 C 190.359375 190.082031 205.445312 188.003906 209.203125 175.585938 C 211.585938 179.488281 213.492188 183.144531 213.757812 183.800781 C 214.195312 184.863281 214.644531 185.921875 215.089844 186.984375 C 217.410156 192.460938 219.648438 197.765625 220.117188 203.113281 C 219.769531 203.199219 219.425781 203.304688 219.085938 203.4375 C 217.441406 204.089844 216.308594 205.339844 216.050781 206.785156 C 215.960938 207.277344 216.285156 207.746094 216.777344 207.835938 C 216.832031 207.84375 216.882812 207.851562 216.9375 207.851562 C 217.363281 207.851562 217.746094 207.546875 217.820312 207.105469 C 217.996094 206.136719 218.929688 205.445312 219.75 205.121094 C 219.890625 205.058594 220.046875 205.007812 220.203125 204.960938 Z M 191.890625 195.160156 C 191.964844 195.179688 192.039062 195.1875 192.109375 195.1875 C 192.511719 195.1875 192.878906 194.917969 192.980469 194.503906 C 193.035156 194.296875 193.222656 194.105469 193.433594 194.050781 C 193.914062 193.925781 194.203125 193.433594 194.082031 192.949219 C 193.957031 192.46875 193.46875 192.175781 192.984375 192.300781 C 192.132812 192.519531 191.445312 193.214844 191.230469 194.066406 C 191.113281 194.550781 191.40625 195.042969 191.890625 195.160156 Z M 203.550781 198.976562 C 203.484375 198.480469 203.03125 198.132812 202.539062 198.203125 C 202.046875 198.265625 201.703125 198.722656 201.769531 199.21875 C 201.90625 200.246094 201.875 201.101562 201.667969 201.828125 C 201.132812 203.710938 199.195312 205.144531 197.0625 205.238281 C 195.066406 205.328125 192.9375 204.289062 191.503906 202.535156 C 191.1875 202.148438 190.617188 202.09375 190.234375 202.410156 C 189.851562 202.726562 189.796875 203.292969 190.109375 203.679688 C 191.847656 205.804688 194.335938 207.046875 196.816406 207.046875 C 196.925781 207.046875 197.03125 207.042969 197.140625 207.042969 C 200.027344 206.914062 202.65625 204.929688 203.394531 202.324219 C 203.671875 201.351562 203.722656 200.253906 203.550781 198.976562 Z M 205.894531 186.777344 C 206.003906 187.183594 206.367188 187.449219 206.765625 187.449219 C 206.84375 187.449219 206.921875 187.441406 207 187.417969 C 207.484375 187.289062 207.988281 187.242188 208.488281 187.285156 C 208.980469 187.324219 209.417969 186.953125 209.457031 186.457031 C 209.496094 185.960938 209.128906 185.523438 208.632812 185.484375 C 207.925781 185.429688 207.21875 185.492188 206.535156 185.675781 C 206.054688 185.800781 205.769531 186.296875 205.894531 186.777344 Z M 213.933594 211.0625 C 213.796875 210.25 213.234375 209.53125 212.433594 209.136719 C 212.335938 209.089844 212.230469 209.042969 212.125 209 C 212.042969 208.960938 211.925781 208.910156 211.847656 208.871094 C 211.878906 208.769531 211.945312 208.613281 211.992188 208.511719 L 212.011719 208.472656 C 212.550781 207.257812 212.398438 206.125 211.625 205.507812 C 211 205.015625 210.097656 204.980469 209.207031 205.417969 C 209.019531 205.507812 208.847656 205.609375 208.683594 205.703125 C 208.4375 205.847656 208.207031 205.984375 208.003906 206.035156 C 207.523438 206.152344 207.226562 206.640625 207.34375 207.125 C 207.460938 207.609375 207.949219 207.90625 208.433594 207.789062 C 208.890625 207.675781 209.265625 207.453125 209.59375 207.261719 C 209.734375 207.175781 209.871094 207.097656 209.996094 207.035156 C 210.273438 206.898438 210.472656 206.90625 210.503906 206.917969 C 210.535156 206.96875 210.566406 207.273438 210.363281 207.730469 L 210.34375 207.769531 C 210.148438 208.214844 209.847656 208.890625 210.164062 209.609375 C 210.445312 210.242188 211.027344 210.492188 211.417969 210.65625 C 211.492188 210.6875 211.566406 210.71875 211.636719 210.753906 C 211.910156 210.890625 212.113281 211.128906 212.152344 211.359375 C 212.183594 211.539062 212.085938 211.734375 211.984375 211.777344 C 211.527344 211.976562 211.320312 212.507812 211.519531 212.96875 C 211.664062 213.308594 211.996094 213.511719 212.347656 213.511719 C 212.464844 213.511719 212.589844 213.484375 212.703125 213.433594 C 213.585938 213.058594 214.101562 212.058594 213.933594 211.0625 Z M 215.792969 192.523438 C 215.734375 192.03125 215.285156 191.671875 214.792969 191.734375 C 214.300781 191.796875 213.949219 192.246094 214.007812 192.738281 C 214.125 193.742188 214.253906 194.78125 214.136719 195.753906 C 214.023438 196.734375 213.65625 197.558594 213.097656 198.074219 C 212.386719 198.730469 211.226562 198.953125 210.207031 198.632812 C 209.214844 198.320312 208.324219 197.539062 207.769531 196.488281 C 207.535156 196.046875 206.988281 195.878906 206.554688 196.113281 C 206.113281 196.347656 205.945312 196.890625 206.179688 197.332031 C 206.957031 198.800781 208.230469 199.902344 209.671875 200.355469 C 210.160156 200.507812 210.664062 200.585938 211.164062 200.585938 C 212.339844 200.585938 213.492188 200.171875 214.324219 199.402344 C 215.191406 198.597656 215.765625 197.375 215.929688 195.960938 C 216.0625 194.78125 215.925781 193.632812 215.792969 192.523438 Z M 215.792969 192.523438 " fill-opacity="1" fill-rule="nonzero"/><path fill="#9d9d9c" d="M 187.902344 167.65625 C 187.535156 167.867188 187.257812 168.113281 187.011719 168.328125 C 186.949219 168.382812 186.890625 168.433594 186.820312 168.492188 C 186.96875 168.316406 187.082031 168.140625 187.183594 167.984375 C 187.25 167.882812 187.316406 167.78125 187.390625 167.683594 C 187.535156 167.5 187.820312 167.304688 188.101562 167.300781 C 188.105469 167.300781 188.105469 167.300781 188.109375 167.300781 C 188.242188 167.300781 188.304688 167.351562 188.304688 167.351562 C 188.316406 167.359375 188.328125 167.375 188.339844 167.394531 C 188.207031 167.480469 188.027344 167.582031 187.902344 167.65625 Z M 182.773438 175.144531 C 182.84375 174.902344 182.957031 174.722656 183.003906 174.644531 C 183.082031 174.519531 183.160156 174.367188 183.234375 174.214844 C 183.128906 174.191406 183.035156 174.167969 182.941406 174.144531 C 182.855469 174.125 182.761719 174.101562 182.6875 174.085938 C 182.703125 174.144531 182.710938 174.199219 182.71875 174.257812 C 182.761719 174.558594 182.726562 174.859375 182.613281 175.164062 C 182.667969 175.15625 182.71875 175.148438 182.773438 175.144531 Z M 186.773438 170.636719 C 186.417969 170.683594 186.167969 170.789062 186.019531 170.871094 C 186.109375 170.960938 186.195312 171.035156 186.285156 171.074219 C 186.617188 171.238281 187.300781 171.167969 187.59375 171.140625 C 187.875 171.113281 188.160156 171.074219 188.375 170.992188 C 188.382812 170.988281 188.382812 170.988281 188.390625 170.984375 C 188.265625 170.742188 188.113281 170.699219 188.046875 170.679688 C 187.902344 170.636719 187.679688 170.632812 187.480469 170.625 C 187.25 170.617188 186.996094 170.609375 186.773438 170.636719 Z M 183.816406 170.113281 C 183.464844 170.132812 183.117188 170.160156 182.816406 170.238281 C 182.109375 170.421875 181.546875 170.90625 180.960938 171.496094 C 180.976562 171.5 181 171.507812 181.019531 171.511719 C 181.34375 171.589844 181.714844 171.609375 182.113281 171.628906 C 182.21875 171.636719 182.324219 171.644531 182.425781 171.652344 L 182.601562 171.664062 L 182.65625 171.695312 C 182.730469 171.734375 182.804688 171.753906 182.882812 171.761719 C 182.902344 171.765625 182.921875 171.765625 182.941406 171.765625 C 182.980469 171.765625 183.023438 171.757812 183.082031 171.746094 L 183.148438 171.730469 C 183.148438 171.730469 183.226562 171.746094 183.238281 171.746094 L 183.226562 171.734375 L 183.378906 171.566406 C 183.445312 171.5 183.523438 171.378906 183.539062 171.21875 L 183.5625 170.949219 C 183.570312 170.863281 183.558594 170.777344 183.527344 170.6875 L 183.464844 170.515625 L 183.59375 170.378906 C 183.675781 170.289062 183.746094 170.199219 183.816406 170.113281 Z M 178.539062 172.480469 C 178.621094 172.464844 178.703125 172.453125 178.78125 172.441406 C 178.761719 172.410156 178.746094 172.378906 178.730469 172.351562 C 178.671875 172.398438 178.605469 172.441406 178.539062 172.480469 Z M 180.015625 169.089844 C 180.3125 168.839844 180.664062 168.582031 181.078125 168.359375 C 180.683594 168.445312 180.292969 168.539062 179.910156 168.636719 C 179.949219 168.785156 179.988281 168.9375 180.015625 169.089844 Z M 186.980469 174.1875 C 186.914062 174.191406 186.851562 174.195312 186.789062 174.203125 C 186.410156 174.246094 186.074219 174.363281 185.871094 174.519531 C 186.265625 174.4375 186.640625 174.324219 186.980469 174.1875 Z M 195.710938 171.214844 C 195.800781 171.226562 195.898438 171.234375 195.988281 171.242188 C 196.035156 171.242188 196.085938 171.246094 196.128906 171.246094 C 196.105469 171.183594 196.058594 171.105469 196 171.09375 C 195.9375 171.085938 195.878906 171.078125 195.816406 171.078125 C 195.652344 171.078125 195.488281 171.113281 195.34375 171.171875 C 195.46875 171.183594 195.59375 171.199219 195.710938 171.214844 Z M 195.230469 167.71875 C 195.054688 167.726562 194.847656 167.761719 194.636719 167.792969 C 194.625 167.796875 194.605469 167.800781 194.589844 167.804688 C 194.511719 167.878906 194.417969 167.96875 194.308594 168.074219 C 194.59375 168.023438 194.902344 167.957031 195.234375 167.882812 L 195.417969 167.839844 C 195.515625 167.820312 195.597656 167.804688 195.667969 167.785156 C 195.664062 167.785156 195.660156 167.78125 195.660156 167.78125 C 195.515625 167.757812 195.371094 167.738281 195.230469 167.71875 Z M 190.175781 173 C 190.335938 173.105469 190.585938 173.234375 190.710938 173.296875 C 190.835938 173.359375 190.871094 173.375 190.921875 173.375 C 191.007812 173.378906 191.148438 173.355469 191.234375 173.339844 C 191.59375 173.28125 191.957031 173.207031 192.3125 173.132812 C 191.746094 172.96875 191.117188 172.828125 190.632812 172.859375 C 190.390625 172.878906 190.25 172.941406 190.175781 173 Z M 177.25 173.484375 L 177.074219 173.484375 C 176.855469 173.484375 176.671875 173.496094 176.515625 173.507812 L 176.480469 173.511719 L 176.386719 173.523438 C 176.386719 173.523438 176.113281 173.40625 176.042969 173.371094 C 175.984375 173.371094 175.933594 173.367188 175.878906 173.363281 C 175.910156 173.386719 175.933594 173.410156 175.964844 173.4375 L 176.148438 173.601562 L 176.027344 173.808594 C 175.984375 173.886719 175.960938 173.964844 175.953125 174.054688 C 175.949219 174.089844 175.949219 174.121094 175.949219 174.15625 C 175.972656 174.398438 176.132812 174.601562 176.367188 174.675781 C 176.429688 174.695312 176.496094 174.710938 176.550781 174.710938 C 176.570312 174.710938 176.582031 174.710938 176.628906 174.707031 C 176.808594 174.691406 177.003906 174.683594 177.257812 174.683594 C 177.363281 174.683594 177.769531 174.6875 177.867188 174.6875 C 178.222656 174.6875 178.644531 174.679688 179.078125 174.605469 L 179.1875 174.585938 L 179.285156 174.644531 C 179.398438 174.714844 179.507812 174.785156 179.613281 174.847656 C 179.695312 174.894531 179.769531 174.941406 179.84375 174.984375 C 179.84375 174.984375 180.066406 174.71875 180.113281 174.664062 L 179.746094 174.472656 L 180.285156 174.214844 C 180.441406 174.140625 180.589844 174.066406 180.722656 173.988281 C 181.015625 173.828125 181.121094 173.460938 180.960938 173.167969 C 180.925781 173.105469 180.875 173.046875 180.816406 172.996094 C 180.710938 172.910156 180.574219 172.863281 180.429688 172.863281 C 180.324219 172.863281 180.226562 172.886719 180.144531 172.933594 C 179.820312 173.113281 179.464844 173.292969 179.058594 173.390625 C 178.6875 173.476562 178.296875 173.488281 177.9375 173.488281 C 177.820312 173.484375 177.363281 173.484375 177.25 173.484375 Z M 199.050781 169.195312 C 199.058594 169.074219 198.871094 168.78125 198.160156 168.457031 C 198.128906 168.679688 198.046875 168.953125 197.847656 169.21875 C 197.804688 169.277344 197.757812 169.335938 197.707031 169.386719 C 197.929688 169.601562 198.113281 169.851562 198.25 170.132812 C 199.019531 169.539062 199.050781 169.199219 199.050781 169.195312 Z M 173.144531 171.472656 C 173.105469 171.449219 173.046875 171.414062 172.964844 171.386719 C 172.898438 171.363281 172.90625 171.371094 172.90625 171.371094 C 172.878906 171.371094 172.800781 171.382812 172.59375 171.464844 C 172.476562 171.515625 172.355469 171.566406 172.242188 171.617188 C 171.734375 171.945312 171.363281 172.226562 171.082031 172.46875 C 171.550781 172.402344 172.09375 172.253906 172.457031 172.042969 C 172.871094 171.796875 173.066406 171.589844 173.144531 171.472656 Z M 171.527344 174.5 C 172.128906 174.722656 173.269531 175.136719 174.054688 175.136719 C 174.054688 175.136719 174.046875 175.136719 174.042969 175.132812 L 173.800781 174.992188 C 173.144531 174.617188 172.574219 174.289062 171.6875 174.335938 C 171.546875 174.339844 171.394531 174.363281 171.25 174.394531 C 171.261719 174.398438 171.265625 174.402344 171.273438 174.40625 C 171.355469 174.4375 171.4375 174.464844 171.527344 174.5 Z M 191.457031 167.503906 C 191.136719 167.496094 190.828125 167.492188 190.523438 167.492188 C 190.535156 167.976562 190.332031 168.421875 189.917969 168.808594 C 189.613281 169.09375 189.246094 169.308594 188.953125 169.476562 C 188.839844 169.542969 188.734375 169.625 188.625 169.714844 C 188.648438 169.75 188.675781 169.785156 188.703125 169.816406 C 188.953125 170.082031 189.339844 170.121094 189.546875 170.121094 C 189.585938 170.121094 189.617188 170.121094 189.644531 170.121094 C 189.789062 170.109375 189.917969 170.085938 190.015625 170.066406 L 190.257812 170.015625 L 190.371094 170.285156 C 190.390625 170.328125 190.410156 170.375 190.425781 170.421875 C 190.46875 170.535156 190.5 170.648438 190.519531 170.753906 C 190.605469 170.75 190.695312 170.746094 190.78125 170.746094 C 191.152344 170.746094 191.554688 170.792969 192 170.882812 C 192.011719 170.816406 192.027344 170.753906 192.046875 170.691406 C 191.691406 170.648438 191.40625 170.550781 191.164062 170.398438 L 190.644531 170.066406 L 191.226562 169.863281 C 191.46875 169.777344 191.632812 169.550781 191.632812 169.296875 C 191.632812 168.984375 191.398438 168.726562 191.082031 168.699219 L 190.578125 168.65625 L 190.859375 168.234375 C 191 168.023438 191.1875 167.789062 191.457031 167.503906 Z M 158.46875 132.144531 C 158.457031 132.089844 158.4375 132.03125 158.429688 132 C 158.347656 131.710938 158.265625 131.414062 158.136719 131.226562 C 158.066406 131.125 157.984375 131.078125 157.964844 131.078125 C 157.910156 131.082031 157.734375 131.183594 157.640625 131.238281 C 157.050781 131.574219 156.433594 131.902344 155.835938 132.214844 C 154.679688 132.824219 153.484375 133.453125 152.464844 134.183594 L 152.429688 134.207031 C 152.273438 134.316406 152.066406 134.464844 152.03125 134.523438 C 152.03125 134.523438 152.015625 134.570312 152.019531 134.707031 C 152.03125 134.949219 152.132812 135.121094 152.222656 135.175781 C 152.242188 135.191406 152.273438 135.210938 152.371094 135.171875 C 154.464844 134.335938 156.628906 133.472656 158.449219 132.160156 C 158.453125 132.15625 158.460938 132.148438 158.46875 132.144531 Z M 164.339844 150.644531 C 162.625 147.6875 160.851562 144.625 158.863281 141.777344 C 158.089844 140.671875 157.351562 139.492188 156.640625 138.347656 C 156.148438 137.566406 155.652344 136.773438 155.136719 135.988281 C 156.082031 135.585938 157.019531 135.148438 157.921875 134.632812 C 158.050781 134.839844 158.175781 135.046875 158.300781 135.261719 C 159.828125 137.9375 161.574219 140.664062 163.265625 143.292969 C 165.386719 146.597656 167.578125 150.015625 169.363281 153.382812 C 170.382812 155.308594 171.503906 157.210938 172.582031 159.046875 C 174.417969 162.160156 176.316406 165.382812 177.734375 168.757812 C 177.851562 169.039062 177.941406 169.339844 177.980469 169.621094 C 178.144531 170.699219 177.652344 170.925781 177.492188 171 C 177.039062 171.210938 176.132812 171.339844 175.871094 171.230469 C 175.695312 171.054688 175.523438 170.632812 175.382812 170.289062 C 175.296875 170.082031 175.210938 169.863281 175.109375 169.667969 C 174.765625 168.988281 174.417969 168.304688 174.066406 167.628906 C 173.351562 166.257812 172.609375 164.867188 171.863281 163.507812 C 170.371094 160.789062 168.789062 158.070312 167.171875 155.429688 C 166.207031 153.859375 165.257812 152.222656 164.339844 150.644531 Z M 168.328125 156.765625 C 168.679688 157.386719 169.027344 158 169.363281 158.605469 C 169.414062 158.695312 169.484375 158.769531 169.554688 158.835938 C 169.148438 158.144531 168.738281 157.453125 168.328125 156.765625 Z M 157.179688 138.652344 C 157.15625 138.613281 157.136719 138.578125 157.113281 138.539062 C 157.117188 138.550781 157.121094 138.558594 157.125 138.566406 C 157.144531 138.597656 157.164062 138.625 157.179688 138.652344 Z M 163.285156 148.238281 C 162.003906 146.050781 160.664062 143.851562 159.210938 141.757812 C 160.59375 143.898438 161.960938 146.070312 163.285156 148.238281 Z M 152.847656 131.796875 C 152.761719 131.75 152.679688 131.695312 152.613281 131.621094 C 152.605469 131.613281 152.597656 131.605469 152.589844 131.597656 C 152.652344 131.5625 152.695312 131.539062 152.695312 131.539062 C 153.132812 131.28125 153.582031 131.027344 154.03125 130.789062 C 154.066406 130.769531 154.097656 130.753906 154.128906 130.738281 C 154.164062 130.839844 154.179688 130.949219 154.171875 131.054688 C 154.445312 130.910156 154.726562 130.761719 154.996094 130.617188 C 155.070312 130.578125 155.136719 130.542969 155.207031 130.507812 L 146.847656 117.636719 C 146.585938 117.226562 146.363281 116.835938 146.152344 116.460938 C 145.695312 115.648438 145.320312 114.984375 144.691406 114.460938 C 143.027344 114.957031 141.605469 116.253906 140.335938 117.40625 C 139.632812 118.046875 139.277344 118.515625 139.285156 118.804688 C 139.292969 119 139.503906 119.285156 139.886719 119.601562 C 141.027344 120.542969 142.0625 121.644531 143.058594 122.714844 C 143.5 123.183594 143.949219 123.667969 144.394531 124.121094 C 145.191406 124.929688 145.992188 125.738281 146.792969 126.546875 C 148.363281 128.128906 149.980469 129.765625 151.5625 131.390625 C 151.804688 131.636719 152.035156 131.890625 152.261719 132.144531 C 152.453125 132.023438 152.652344 131.910156 152.847656 131.796875 Z M 207.253906 171.34375 C 206.125 168.851562 205.046875 167.222656 203.75 166.0625 C 202.601562 165.03125 201.226562 164.332031 199.546875 163.925781 C 196.800781 163.253906 193.917969 163.117188 191.046875 163.117188 C 190.03125 163.117188 189.019531 163.136719 188.015625 163.152344 L 187.859375 163.152344 C 184.636719 163.207031 181.304688 163.664062 177.730469 164.527344 C 178.105469 165.257812 178.472656 165.996094 178.816406 166.746094 C 184.105469 165.277344 189.613281 165.28125 193.644531 165.464844 C 194.222656 165.492188 194.796875 165.542969 195.355469 165.613281 C 195.394531 165.613281 195.4375 165.609375 195.476562 165.613281 C 195.710938 165.625 195.9375 165.664062 196.15625 165.726562 C 196.59375 165.800781 197.011719 165.886719 197.398438 165.984375 C 200.613281 166.796875 201.210938 168.246094 201.144531 169.324219 C 201.0625 170.761719 199.683594 172.050781 196.820312 173.378906 C 195.949219 173.78125 195.046875 174.15625 194.121094 174.507812 C 194.082031 174.523438 194.039062 174.539062 193.996094 174.554688 C 190.351562 175.925781 186.332031 176.878906 182.210938 177.335938 C 181.164062 177.453125 179.808594 177.558594 178.332031 177.558594 C 177.945312 177.558594 177.554688 177.546875 177.15625 177.53125 C 177.105469 177.53125 177.054688 177.539062 177.003906 177.539062 C 176.65625 177.539062 176.34375 177.511719 176.0625 177.46875 C 174.121094 177.304688 172.152344 176.902344 170.53125 176.066406 C 170.175781 175.941406 169.777344 175.789062 169.453125 175.53125 C 169.191406 175.324219 169.019531 175.070312 168.933594 174.800781 C 168.59375 174.316406 168.511719 173.847656 168.527344 173.476562 C 168.535156 173.214844 168.59375 172.953125 168.699219 172.691406 C 168.851562 171.449219 170.472656 170.484375 171.363281 170.046875 C 171.796875 169.769531 172.285156 169.484375 172.832031 169.1875 C 172.710938 168.949219 172.589844 168.710938 172.46875 168.472656 C 172.136719 167.832031 171.796875 167.1875 171.453125 166.546875 C 169.410156 167.429688 167.628906 168.484375 166.136719 169.707031 C 163.691406 171.699219 163.105469 176.9375 162.820312 179.453125 C 162.777344 179.84375 162.742188 180.226562 162.824219 180.527344 C 162.921875 180.910156 163.234375 181.289062 163.542969 181.644531 C 168.148438 186.941406 174.652344 188.175781 179.289062 188.269531 C 188.351562 188.464844 204.066406 186.972656 207.550781 174.84375 C 207.710938 174.285156 207.855469 173.695312 207.820312 173.15625 C 207.78125 172.546875 207.519531 171.925781 207.253906 171.34375 Z M 207.253906 171.34375 " fill-opacity="1" fill-rule="nonzero"/><path fill="#f6f6f6" d="M 187.011719 168.328125 C 186.949219 168.382812 186.890625 168.433594 186.820312 168.492188 C 186.96875 168.316406 187.082031 168.140625 187.183594 167.984375 C 187.25 167.882812 187.316406 167.78125 187.390625 167.683594 C 187.535156 167.5 187.820312 167.304688 188.101562 167.300781 C 188.105469 167.300781 188.105469 167.300781 188.109375 167.300781 C 188.242188 167.300781 188.304688 167.351562 188.304688 167.351562 C 188.316406 167.359375 188.328125 167.375 188.339844 167.394531 C 188.207031 167.480469 188.027344 167.585938 187.902344 167.660156 C 187.535156 167.867188 187.257812 168.113281 187.011719 168.328125 Z M 182.773438 175.144531 C 182.84375 174.902344 182.957031 174.722656 183.003906 174.644531 C 183.082031 174.519531 183.160156 174.367188 183.234375 174.214844 C 183.128906 174.191406 183.035156 174.167969 182.941406 174.144531 C 182.855469 174.125 182.761719 174.101562 182.6875 174.085938 C 182.703125 174.144531 182.710938 174.199219 182.71875 174.257812 C 182.761719 174.558594 182.726562 174.859375 182.613281 175.164062 C 182.667969 175.15625 182.71875 175.148438 182.773438 175.144531 Z M 187.59375 171.140625 C 187.871094 171.113281 188.15625 171.074219 188.371094 170.992188 C 188.378906 170.988281 188.382812 170.988281 188.386719 170.984375 C 188.261719 170.742188 188.109375 170.699219 188.042969 170.679688 C 187.898438 170.636719 187.675781 170.632812 187.480469 170.625 C 187.25 170.621094 186.996094 170.613281 186.773438 170.636719 C 186.417969 170.683594 186.167969 170.789062 186.019531 170.871094 C 186.109375 170.960938 186.195312 171.035156 186.285156 171.074219 C 186.617188 171.234375 187.300781 171.167969 187.59375 171.140625 Z M 181.019531 171.507812 C 181.34375 171.589844 181.714844 171.605469 182.113281 171.628906 C 182.132812 171.628906 182.15625 171.628906 182.179688 171.628906 C 182.261719 171.765625 182.378906 171.875 182.519531 171.953125 C 182.621094 172.007812 182.734375 172.042969 182.855469 172.054688 C 182.882812 172.058594 182.914062 172.058594 182.941406 172.058594 C 183.011719 172.058594 183.085938 172.046875 183.148438 172.03125 C 183.324219 171.992188 183.480469 171.898438 183.597656 171.769531 C 183.726562 171.628906 183.816406 171.449219 183.835938 171.242188 L 183.859375 170.972656 C 183.875 170.835938 183.851562 170.703125 183.808594 170.582031 C 183.773438 170.480469 183.71875 170.390625 183.652344 170.308594 C 183.710938 170.242188 183.769531 170.179688 183.820312 170.113281 C 183.699219 170.121094 183.582031 170.128906 183.464844 170.136719 C 183.347656 170.058594 183.207031 170.003906 183.054688 169.988281 C 182.667969 169.953125 182.308594 170.175781 182.152344 170.519531 C 181.734375 170.757812 181.355469 171.101562 180.964844 171.492188 C 180.976562 171.5 181 171.503906 181.019531 171.507812 Z M 178.730469 172.351562 C 178.667969 172.398438 178.605469 172.441406 178.539062 172.480469 C 178.617188 172.464844 178.699219 172.453125 178.777344 172.441406 C 178.761719 172.414062 178.75 172.382812 178.730469 172.351562 Z M 181.078125 168.355469 C 180.683594 168.445312 180.292969 168.535156 179.910156 168.632812 C 179.953125 168.785156 179.988281 168.9375 180.015625 169.085938 C 180.3125 168.839844 180.667969 168.582031 181.078125 168.355469 Z M 186.789062 174.203125 C 186.410156 174.246094 186.074219 174.363281 185.871094 174.519531 C 186.265625 174.4375 186.640625 174.324219 186.980469 174.1875 C 186.917969 174.191406 186.851562 174.195312 186.789062 174.203125 Z M 195.710938 171.214844 C 195.800781 171.226562 195.898438 171.234375 195.988281 171.242188 C 196.035156 171.242188 196.085938 171.246094 196.128906 171.246094 C 196.105469 171.183594 196.058594 171.105469 196 171.09375 C 195.9375 171.085938 195.878906 171.078125 195.816406 171.078125 C 195.652344 171.078125 195.488281 171.113281 195.34375 171.171875 C 195.46875 171.183594 195.59375 171.199219 195.710938 171.214844 Z M 195.414062 167.839844 C 195.507812 167.820312 195.59375 167.804688 195.660156 167.785156 C 195.660156 167.785156 195.65625 167.78125 195.652344 167.78125 C 195.511719 167.761719 195.371094 167.738281 195.226562 167.722656 C 195.050781 167.730469 194.847656 167.765625 194.632812 167.796875 C 194.621094 167.800781 194.605469 167.804688 194.585938 167.804688 C 194.507812 167.882812 194.414062 167.972656 194.304688 168.078125 C 194.589844 168.023438 194.898438 167.957031 195.230469 167.886719 Z M 190.632812 172.859375 C 190.390625 172.875 190.25 172.941406 190.175781 173 C 190.335938 173.105469 190.585938 173.234375 190.710938 173.296875 C 190.835938 173.359375 190.871094 173.375 190.921875 173.375 C 191.007812 173.378906 191.148438 173.355469 191.234375 173.339844 C 191.59375 173.28125 191.957031 173.207031 192.3125 173.132812 C 191.75 172.96875 191.121094 172.828125 190.632812 172.859375 Z M 199.050781 169.195312 C 199.058594 169.074219 198.871094 168.78125 198.160156 168.457031 C 198.128906 168.679688 198.046875 168.953125 197.847656 169.21875 C 197.804688 169.277344 197.757812 169.335938 197.707031 169.386719 C 197.929688 169.601562 198.113281 169.851562 198.25 170.132812 C 199.019531 169.539062 199.050781 169.199219 199.050781 169.195312 Z M 173.144531 171.472656 C 173.105469 171.449219 173.046875 171.414062 172.964844 171.386719 C 172.898438 171.363281 172.90625 171.371094 172.90625 171.371094 C 172.878906 171.371094 172.800781 171.382812 172.59375 171.464844 C 172.476562 171.515625 172.355469 171.566406 172.242188 171.617188 C 171.734375 171.945312 171.363281 172.226562 171.082031 172.46875 C 171.550781 172.402344 172.09375 172.253906 172.457031 172.042969 C 172.871094 171.796875 173.066406 171.589844 173.144531 171.472656 Z M 174.042969 175.132812 L 173.800781 174.992188 C 173.144531 174.617188 172.574219 174.289062 171.6875 174.335938 C 171.546875 174.339844 171.394531 174.363281 171.25 174.394531 C 171.261719 174.398438 171.265625 174.402344 171.273438 174.40625 C 171.351562 174.433594 171.433594 174.464844 171.523438 174.496094 C 172.125 174.71875 173.269531 175.136719 174.054688 175.136719 C 174.054688 175.136719 174.050781 175.136719 174.042969 175.132812 Z M 176.273438 174.96875 C 176.359375 174.996094 176.453125 175.015625 176.550781 175.015625 C 176.578125 175.015625 176.601562 175.015625 176.628906 175.011719 C 176.636719 175.011719 176.644531 175.011719 176.652344 175.011719 C 176.949219 174.988281 177.253906 174.992188 177.574219 174.992188 C 178.074219 175 178.589844 175 179.125 174.90625 C 179.214844 174.890625 179.304688 174.878906 179.398438 174.859375 C 179.453125 174.847656 179.503906 174.832031 179.554688 174.816406 C 179.570312 174.828125 179.59375 174.839844 179.613281 174.851562 C 179.695312 174.902344 179.769531 174.949219 179.84375 174.992188 C 179.84375 174.992188 180.066406 174.722656 180.113281 174.671875 L 180.0625 174.644531 C 180.183594 174.59375 180.300781 174.542969 180.410156 174.492188 C 180.570312 174.414062 180.722656 174.335938 180.863281 174.257812 C 181.300781 174.015625 181.460938 173.464844 181.21875 173.03125 C 181.160156 172.929688 181.085938 172.839844 181.003906 172.773438 C 180.835938 172.636719 180.632812 172.566406 180.417969 172.570312 C 180.277344 172.570312 180.128906 172.601562 179.996094 172.675781 C 179.6875 172.847656 179.355469 173.015625 178.984375 173.101562 C 178.5625 173.203125 178.09375 173.199219 177.597656 173.191406 C 177.421875 173.191406 177.25 173.191406 177.070312 173.191406 C 176.875 173.195312 176.679688 173.203125 176.476562 173.21875 C 176.460938 173.21875 176.445312 173.226562 176.429688 173.226562 C 176.285156 173.25 176.152344 173.304688 176.035156 173.382812 C 175.984375 173.382812 175.933594 173.378906 175.882812 173.375 C 175.910156 173.398438 175.9375 173.421875 175.96875 173.445312 C 175.894531 173.511719 175.824219 173.589844 175.773438 173.675781 C 175.710938 173.785156 175.671875 173.910156 175.660156 174.039062 C 175.65625 174.089844 175.65625 174.144531 175.65625 174.195312 C 175.683594 174.558594 175.9375 174.855469 176.273438 174.96875 Z M 188.265625 177.578125 C 187.199219 177.832031 186.109375 178.023438 185.015625 178.136719 C 184.519531 178.191406 184.164062 178.636719 184.214844 179.128906 C 184.261719 179.59375 184.652344 179.941406 185.105469 179.941406 C 185.140625 179.941406 185.167969 179.9375 185.203125 179.933594 C 186.371094 179.8125 187.542969 179.605469 188.683594 179.335938 C 189.167969 179.21875 189.464844 178.730469 189.347656 178.246094 C 189.234375 177.761719 188.75 177.464844 188.265625 177.578125 Z M 142.519531 118.589844 C 142.25 118.171875 141.691406 118.050781 141.273438 118.324219 C 140.855469 118.59375 140.734375 119.15625 141.007812 119.574219 C 141.34375 120.097656 141.753906 120.574219 142.222656 120.992188 C 142.394531 121.144531 142.605469 121.21875 142.816406 121.21875 C 143.066406 121.21875 143.3125 121.113281 143.492188 120.910156 C 143.820312 120.535156 143.785156 119.96875 143.414062 119.636719 C 143.070312 119.328125 142.769531 118.976562 142.519531 118.589844 Z M 190.371094 170.289062 C 190.386719 170.335938 190.410156 170.378906 190.425781 170.421875 C 190.464844 170.535156 190.496094 170.648438 190.515625 170.753906 C 190.605469 170.75 190.691406 170.746094 190.777344 170.746094 C 191.148438 170.746094 191.550781 170.792969 191.996094 170.882812 C 192.007812 170.816406 192.023438 170.753906 192.042969 170.6875 C 191.6875 170.648438 191.40625 170.550781 191.164062 170.398438 L 190.863281 170.207031 C 190.917969 170.203125 190.96875 170.199219 191.019531 170.199219 C 191.023438 170.199219 191.023438 170.199219 191.027344 170.199219 C 191.132812 170.199219 191.226562 170.175781 191.320312 170.144531 C 191.671875 170.019531 191.925781 169.691406 191.925781 169.296875 C 191.925781 168.820312 191.5625 168.433594 191.101562 168.394531 C 191.074219 168.394531 191.050781 168.390625 191.027344 168.390625 C 190.929688 168.390625 190.832031 168.398438 190.734375 168.40625 L 190.851562 168.230469 C 190.992188 168.019531 191.183594 167.789062 191.457031 167.5 C 191.132812 167.492188 190.824219 167.488281 190.519531 167.488281 C 190.527344 167.839844 190.421875 168.171875 190.207031 168.472656 C 190.1875 168.476562 190.171875 168.480469 190.15625 168.484375 C 190.070312 168.5 189.984375 168.523438 189.902344 168.542969 C 189.835938 168.558594 189.777344 168.574219 189.714844 168.585938 C 189.4375 168.847656 189.089844 169.050781 188.800781 169.214844 C 188.605469 169.328125 188.4375 169.472656 188.253906 169.632812 C 188.300781 169.773438 188.378906 169.90625 188.484375 170.019531 C 188.804688 170.359375 189.269531 170.417969 189.542969 170.417969 C 189.589844 170.417969 189.625 170.414062 189.660156 170.414062 C 189.808594 170.40625 189.945312 170.378906 190.070312 170.355469 C 190.160156 170.335938 190.25 170.316406 190.335938 170.292969 C 190.351562 170.296875 190.363281 170.292969 190.371094 170.289062 Z M 205.699219 173.90625 C 205.410156 173.5 204.84375 173.410156 204.441406 173.703125 C 203.816406 174.152344 203.269531 174.734375 202.859375 175.386719 L 202.769531 175.53125 C 202.695312 175.648438 202.621094 175.769531 202.558594 175.84375 C 202.328125 175.761719 202.074219 175.777344 201.847656 175.890625 C 201.550781 176.039062 201.363281 176.339844 201.355469 176.667969 C 201.351562 176.804688 201.335938 176.9375 201.316406 177.070312 L 201.082031 176.875 C 200.8125 176.644531 200.433594 176.589844 200.113281 176.746094 C 199.792969 176.902344 199.59375 177.230469 199.601562 177.582031 C 199.617188 178.183594 199.613281 178.667969 199.417969 178.992188 C 199.332031 179.140625 199.136719 179.226562 199.09375 179.230469 L 199.046875 179.191406 C 198.886719 179.054688 198.503906 178.738281 197.960938 178.832031 C 197.511719 178.90625 197.257812 179.21875 197.160156 179.335938 C 197.0625 179.457031 196.96875 179.582031 196.867188 179.710938 C 196.746094 179.871094 196.625 180.03125 196.507812 180.167969 C 196.34375 179.96875 196.09375 179.84375 195.820312 179.84375 C 195.820312 179.84375 195.816406 179.84375 195.816406 179.84375 C 195.320312 179.84375 194.917969 180.246094 194.917969 180.742188 C 194.917969 181.152344 195.003906 181.566406 195.175781 181.9375 C 195.324219 182.265625 195.648438 182.46875 195.992188 182.46875 C 196.046875 182.46875 196.105469 182.464844 196.160156 182.453125 C 197.179688 182.261719 197.789062 181.476562 198.28125 180.835938 C 198.632812 181.011719 199.046875 181.066406 199.464844 180.984375 C 200.085938 180.859375 200.652344 180.460938 200.972656 179.914062 C 201.09375 179.707031 201.183594 179.492188 201.25 179.273438 C 201.398438 179.328125 201.578125 179.363281 201.78125 179.335938 C 202.070312 179.296875 202.464844 179.132812 202.722656 178.578125 C 202.867188 178.273438 202.976562 177.949219 203.050781 177.617188 C 203.265625 177.550781 203.476562 177.441406 203.664062 177.285156 C 203.972656 177.03125 204.160156 176.71875 204.3125 176.476562 L 204.386719 176.351562 C 204.675781 175.894531 205.0625 175.484375 205.503906 175.164062 C 205.898438 174.878906 205.992188 174.3125 205.699219 173.90625 Z M 199.328125 173.742188 C 199.035156 173.339844 198.46875 173.253906 198.070312 173.550781 C 196.332031 174.839844 194.410156 175.824219 192.351562 176.476562 C 191.875 176.628906 191.613281 177.132812 191.761719 177.609375 C 191.886719 177.996094 192.238281 178.242188 192.621094 178.242188 C 192.710938 178.242188 192.800781 178.226562 192.890625 178.203125 C 195.140625 177.488281 197.246094 176.414062 199.140625 175.007812 C 199.539062 174.710938 199.625 174.144531 199.328125 173.742188 Z M 145.851562 122.289062 C 145.488281 121.953125 144.917969 121.972656 144.578125 122.339844 C 144.242188 122.703125 144.261719 123.277344 144.628906 123.613281 C 147.371094 126.175781 150.0625 128.871094 152.617188 131.621094 C 152.683594 131.695312 152.765625 131.75 152.847656 131.796875 C 153.285156 131.539062 153.726562 131.289062 154.171875 131.050781 C 154.183594 130.816406 154.105469 130.574219 153.933594 130.390625 C 151.347656 127.605469 148.628906 124.878906 145.851562 122.289062 Z M 169.621094 181.421875 C 169.128906 181.308594 168.671875 181.113281 168.292969 180.84375 C 167.886719 180.558594 167.324219 180.65625 167.039062 181.066406 C 166.753906 181.476562 166.851562 182.039062 167.261719 182.324219 C 167.828125 182.726562 168.507812 183.023438 169.226562 183.1875 C 169.292969 183.203125 169.359375 183.207031 169.425781 183.207031 C 169.839844 183.207031 170.207031 182.921875 170.304688 182.503906 C 170.410156 182.015625 170.105469 181.53125 169.621094 181.421875 Z M 182.863281 183.578125 C 182.660156 183.601562 182.347656 183.570312 182.050781 183.539062 C 181.355469 183.460938 180.507812 183.371094 179.792969 183.800781 C 179.734375 183.445312 179.636719 182.996094 179.292969 182.597656 C 179.035156 182.300781 178.609375 182.207031 178.246094 182.363281 C 177.777344 182.574219 177.496094 182.917969 177.296875 183.253906 L 177.28125 183.183594 C 177.085938 182.308594 176.429688 182.160156 176.234375 182.132812 C 175.664062 182.0625 175.269531 182.414062 175.101562 182.5625 C 174.957031 182.691406 174.804688 182.6875 174.191406 182.519531 C 174.042969 182.480469 173.890625 182.4375 173.738281 182.402344 C 173.253906 182.296875 172.773438 182.605469 172.667969 183.09375 C 172.558594 183.582031 172.867188 184.0625 173.355469 184.167969 C 173.476562 184.195312 173.597656 184.230469 173.722656 184.261719 C 174.242188 184.402344 174.96875 184.601562 175.691406 184.300781 L 175.917969 185.3125 C 176.011719 185.726562 176.375 186.015625 176.796875 186.015625 C 176.800781 186.015625 176.808594 186.015625 176.8125 186.015625 C 177.394531 186.003906 177.929688 185.703125 178.320312 185.175781 C 178.34375 185.222656 178.375 185.269531 178.402344 185.316406 C 178.664062 185.714844 179.0625 185.945312 179.503906 185.957031 C 180.0625 185.972656 180.421875 185.625 180.613281 185.441406 C 180.640625 185.417969 180.664062 185.390625 180.691406 185.367188 C 180.863281 185.21875 181.4375 185.28125 181.859375 185.328125 C 182.261719 185.367188 182.671875 185.414062 183.074219 185.367188 C 183.566406 185.3125 183.925781 184.863281 183.863281 184.367188 C 183.804688 183.875 183.351562 183.519531 182.863281 183.578125 Z M 158.625 137.570312 C 158.351562 137.152344 157.792969 137.042969 157.378906 137.316406 C 156.960938 137.59375 156.851562 138.152344 157.125 138.570312 C 161.480469 145.144531 165.828125 152.261719 169.363281 158.609375 C 169.527344 158.90625 169.835938 159.070312 170.148438 159.070312 C 170.296875 159.070312 170.449219 159.035156 170.589844 158.957031 C 171.019531 158.714844 171.175781 158.164062 170.933594 157.726562 C 167.378906 151.339844 163.007812 144.183594 158.625 137.570312 Z M 158.625 137.570312 " fill-opacity="1" fill-rule="nonzero"/><path fill="#f4c524" d="M 195.292969 168.175781 C 194.453125 168.359375 193.839844 168.472656 193.390625 168.535156 C 193.609375 168.316406 193.820312 168.121094 193.949219 168 C 194.171875 167.789062 194.332031 167.636719 194.4375 167.527344 C 194.4375 167.527344 194.441406 167.523438 194.441406 167.523438 C 194.484375 167.515625 194.550781 167.503906 194.59375 167.496094 C 194.816406 167.460938 195.046875 167.425781 195.246094 167.417969 C 195.414062 167.441406 195.582031 167.464844 195.742188 167.492188 C 195.851562 167.535156 195.921875 167.585938 195.945312 167.621094 C 196 167.695312 196.027344 167.816406 196.050781 167.984375 C 195.9375 168.023438 195.761719 168.074219 195.480469 168.136719 Z M 184.128906 172.171875 C 183.90625 172.109375 183.71875 171.964844 183.597656 171.765625 C 183.480469 171.894531 183.328125 171.988281 183.148438 172.03125 C 183.253906 172.050781 183.355469 172.078125 183.457031 172.101562 C 183.644531 172.148438 183.882812 172.203125 183.984375 172.195312 C 184.039062 172.195312 184.089844 172.183594 184.128906 172.171875 Z M 184.347656 169.796875 C 184.222656 169.792969 184.070312 169.800781 183.988281 169.804688 C 183.566406 169.824219 183.125 169.851562 182.742188 169.949219 C 181.875 170.175781 181.226562 170.789062 180.53125 171.503906 C 180.503906 171.53125 180.46875 171.566406 180.433594 171.605469 C 180.53125 171.664062 180.6875 171.734375 180.945312 171.796875 C 181.296875 171.886719 181.6875 171.90625 182.09375 171.925781 C 182.234375 171.933594 182.375 171.945312 182.515625 171.953125 C 182.207031 171.789062 182.007812 171.449219 182.042969 171.074219 L 182.070312 170.800781 C 182.117188 170.304688 182.5625 169.941406 183.046875 169.984375 C 183.40625 170.019531 183.695312 170.261719 183.808594 170.578125 C 184.03125 170.34375 184.207031 170.097656 184.332031 169.839844 C 184.335938 169.824219 184.34375 169.808594 184.347656 169.796875 Z M 179.757812 169.351562 C 179.777344 169.464844 179.789062 169.574219 179.796875 169.683594 C 180.40625 169.105469 181.222656 168.472656 182.285156 168.199219 C 182.851562 168.050781 183.429688 168.023438 183.894531 167.996094 C 184.007812 167.992188 184.132812 167.984375 184.265625 167.984375 C 184.324219 167.9375 184.386719 167.894531 184.457031 167.859375 C 184.457031 167.859375 184.460938 167.859375 184.460938 167.859375 C 184.578125 167.804688 184.695312 167.757812 184.808594 167.710938 C 185.042969 167.613281 185.246094 167.53125 185.34375 167.429688 C 185.351562 167.421875 185.359375 167.414062 185.367188 167.402344 C 183.445312 167.582031 181.46875 167.902344 179.527344 168.421875 C 179.632812 168.730469 179.714844 169.046875 179.757812 169.351562 Z M 195.121094 170.949219 C 194.871094 171.082031 194.625 171.171875 194.40625 171.253906 C 194.324219 171.28125 194.222656 171.320312 194.136719 171.355469 C 194.160156 171.375 194.195312 171.398438 194.238281 171.414062 C 194.371094 171.46875 194.527344 171.484375 194.796875 171.464844 C 194.867188 171.460938 194.933594 171.460938 195 171.460938 C 195.238281 171.460938 195.457031 171.484375 195.65625 171.507812 C 195.761719 171.519531 195.867188 171.53125 195.972656 171.539062 C 196.054688 171.546875 196.148438 171.550781 196.207031 171.542969 C 196.335938 171.527344 196.429688 171.398438 196.4375 171.34375 C 196.460938 171.179688 196.328125 170.84375 196.050781 170.800781 C 195.742188 170.75 195.394531 170.804688 195.121094 170.949219 Z M 197.867188 168.011719 C 197.890625 168.226562 197.90625 168.640625 197.613281 169.039062 C 197.511719 169.179688 197.386719 169.292969 197.246094 169.386719 C 197.671875 169.6875 197.972656 170.128906 198.125 170.597656 C 199.242188 169.824219 199.347656 169.332031 199.355469 169.210938 C 199.375 168.800781 198.820312 168.367188 197.867188 168.011719 Z M 191.03125 170.199219 C 191.027344 170.199219 191.023438 170.199219 191.023438 170.199219 C 190.863281 170.199219 190.695312 170.21875 190.53125 170.25 C 190.464844 170.265625 190.402344 170.28125 190.335938 170.296875 C 190.257812 170.316406 190.167969 170.339844 190.074219 170.355469 C 190.097656 170.410156 190.121094 170.464844 190.144531 170.523438 C 190.199219 170.675781 190.25 170.867188 190.253906 171.085938 C 190.335938 171.074219 190.425781 171.0625 190.511719 171.054688 C 191.078125 171.015625 191.691406 171.109375 192.265625 171.246094 C 192.257812 170.910156 192.351562 170.636719 192.5 170.414062 C 191.972656 170.410156 191.601562 170.320312 191.324219 170.144531 C 191.230469 170.179688 191.136719 170.199219 191.03125 170.199219 Z M 190.175781 173 C 190.335938 173.105469 190.585938 173.234375 190.710938 173.296875 C 190.835938 173.359375 190.871094 173.375 190.921875 173.375 C 191.007812 173.378906 191.148438 173.355469 191.234375 173.339844 C 191.59375 173.28125 191.957031 173.207031 192.3125 173.132812 C 191.746094 172.96875 191.117188 172.828125 190.632812 172.859375 C 190.390625 172.878906 190.25 172.941406 190.175781 173 Z M 180.410156 174.484375 C 180.113281 174.628906 179.777344 174.761719 179.398438 174.851562 C 179.304688 174.875 179.214844 174.886719 179.125 174.902344 C 179.238281 174.96875 179.351562 175.039062 179.457031 175.101562 C 179.59375 175.1875 179.722656 175.261719 179.832031 175.328125 C 179.851562 175.339844 179.867188 175.355469 179.882812 175.359375 C 179.90625 175.339844 179.964844 175.300781 180.035156 175.214844 L 180.214844 175.003906 C 180.324219 174.875 180.46875 174.699219 180.5625 174.566406 C 180.558594 174.566406 180.558594 174.566406 180.558594 174.566406 C 180.515625 174.542969 180.464844 174.515625 180.410156 174.484375 Z M 187.902344 167.65625 C 188.027344 167.582031 188.207031 167.480469 188.339844 167.390625 C 188.328125 167.371094 188.316406 167.355469 188.304688 167.347656 C 188.304688 167.347656 188.242188 167.300781 188.109375 167.300781 C 188.105469 167.300781 188.105469 167.300781 188.101562 167.300781 C 187.820312 167.300781 187.535156 167.5 187.390625 167.679688 C 187.316406 167.777344 187.25 167.878906 187.183594 167.984375 C 187.078125 168.140625 186.96875 168.3125 186.820312 168.488281 C 186.890625 168.433594 186.953125 168.378906 187.011719 168.324219 C 187.257812 168.113281 187.535156 167.867188 187.902344 167.65625 Z M 189.90625 168.546875 C 189.988281 168.523438 190.074219 168.503906 190.160156 168.484375 C 190.449219 168.425781 190.742188 168.394531 191.035156 168.394531 C 191.058594 168.394531 191.082031 168.402344 191.105469 168.402344 C 191.316406 168.082031 191.660156 167.710938 192.15625 167.222656 C 191.523438 167.203125 190.867188 167.191406 190.183594 167.191406 C 190.324219 167.804688 190.082031 168.25 189.714844 168.589844 C 189.777344 168.574219 189.839844 168.5625 189.90625 168.546875 Z M 183.019531 175.414062 C 183.058594 175.128906 183.195312 174.90625 183.257812 174.800781 C 183.34375 174.664062 183.425781 174.5 183.511719 174.324219 C 183.558594 174.230469 183.605469 174.128906 183.65625 174.035156 C 183.667969 174.019531 183.675781 174.003906 183.683594 173.988281 C 183.449219 173.960938 183.226562 173.910156 183.023438 173.859375 C 182.871094 173.820312 182.714844 173.78125 182.609375 173.769531 C 182.480469 173.757812 182.351562 173.753906 182.222656 173.746094 C 182.324219 173.921875 182.394531 174.105469 182.421875 174.300781 C 182.488281 174.765625 182.324219 175.167969 182.085938 175.527344 C 182.398438 175.492188 182.707031 175.457031 183.019531 175.414062 Z M 185.253906 174.875 C 185.246094 174.894531 185.230469 174.914062 185.222656 174.933594 C 186.347656 174.796875 187.355469 174.449219 188.097656 173.9375 C 187.789062 173.90625 187.496094 173.882812 187.214844 173.882812 C 187.0625 173.882812 186.910156 173.886719 186.757812 173.90625 C 186.277344 173.960938 185.863281 174.117188 185.621094 174.34375 C 185.464844 174.484375 185.347656 174.691406 185.253906 174.875 Z M 187.59375 171.140625 C 187.871094 171.113281 188.15625 171.074219 188.371094 170.992188 C 188.378906 170.988281 188.382812 170.988281 188.386719 170.984375 C 188.261719 170.742188 188.109375 170.699219 188.042969 170.679688 C 187.898438 170.636719 187.675781 170.632812 187.480469 170.625 C 187.25 170.621094 186.996094 170.613281 186.773438 170.636719 C 186.417969 170.683594 186.167969 170.789062 186.019531 170.871094 C 186.109375 170.960938 186.195312 171.035156 186.285156 171.074219 C 186.617188 171.234375 187.300781 171.167969 187.59375 171.140625 Z M 173.804688 174.996094 C 173.148438 174.621094 172.578125 174.292969 171.691406 174.335938 C 171.550781 174.34375 171.398438 174.363281 171.253906 174.398438 C 171.261719 174.402344 171.269531 174.40625 171.277344 174.410156 C 171.355469 174.4375 171.4375 174.464844 171.527344 174.5 C 172.128906 174.722656 173.269531 175.136719 174.054688 175.136719 C 174.054688 175.136719 174.046875 175.136719 174.042969 175.132812 Z M 173.144531 171.472656 C 173.105469 171.449219 173.046875 171.414062 172.964844 171.386719 C 172.898438 171.363281 172.90625 171.371094 172.90625 171.371094 C 172.878906 171.371094 172.800781 171.382812 172.59375 171.464844 C 172.476562 171.515625 172.355469 171.566406 172.242188 171.617188 C 171.734375 171.945312 171.363281 172.226562 171.082031 172.46875 C 171.550781 172.402344 172.09375 172.253906 172.457031 172.042969 C 172.871094 171.796875 173.066406 171.589844 173.144531 171.472656 Z M 178.539062 172.480469 C 178.621094 172.464844 178.703125 172.453125 178.78125 172.441406 C 178.761719 172.410156 178.746094 172.378906 178.730469 172.351562 C 178.671875 172.398438 178.605469 172.441406 178.539062 172.480469 Z M 176.113281 173.074219 C 175.644531 173.066406 175.183594 172.964844 174.816406 172.699219 C 174.808594 172.710938 174.796875 172.71875 174.792969 172.726562 C 174.726562 172.796875 174.691406 172.855469 174.679688 172.894531 C 174.765625 172.976562 174.972656 173.105469 175.105469 173.1875 C 175.320312 173.320312 175.554688 173.46875 175.769531 173.660156 C 175.902344 173.421875 176.140625 173.253906 176.429688 173.214844 C 176.40625 173.207031 176.386719 173.199219 176.367188 173.1875 C 176.285156 173.152344 176.199219 173.117188 176.113281 173.074219 Z M 218.773438 251.824219 C 218.390625 251.660156 217.972656 251.570312 217.519531 251.539062 C 217.054688 252.285156 216.75 253.132812 216.628906 254.003906 C 217.785156 253.605469 218.921875 253.203125 220.042969 252.789062 C 219.707031 252.378906 219.269531 252.03125 218.773438 251.824219 Z M 203.203125 260.613281 C 203.949219 260.519531 204.699219 260.273438 205.480469 260.015625 C 206.203125 259.773438 206.949219 259.53125 207.738281 259.394531 C 207.863281 259.117188 208 258.847656 208.167969 258.597656 C 206.503906 259.085938 204.800781 259.566406 203.039062 260.046875 C 203.097656 260.253906 203.152344 260.445312 203.203125 260.613281 Z M 215.355469 251.835938 C 215.046875 251.914062 214.730469 251.992188 214.394531 252.046875 C 214.34375 252.082031 214.289062 252.117188 214.230469 252.144531 C 214.214844 252.15625 214.144531 252.214844 214 252.484375 C 213.542969 253.332031 213.214844 254.246094 213.035156 255.191406 C 213.035156 255.195312 213.03125 255.203125 213.03125 255.207031 C 213.617188 255.019531 214.195312 254.828125 214.769531 254.636719 C 214.796875 253.679688 214.996094 252.726562 215.355469 251.835938 Z M 212.316406 251.828125 C 211.96875 251.675781 211.65625 251.460938 211.394531 251.191406 C 211.214844 251.003906 211.070312 250.804688 210.945312 250.625 C 210.824219 250.449219 210.667969 250.234375 210.574219 250.1875 C 210.546875 250.171875 210.433594 250.175781 210.253906 250.265625 C 209.898438 250.445312 209.640625 250.761719 209.566406 251.113281 C 209.457031 251.621094 209.507812 251.921875 209.601562 251.980469 C 209.960938 252.226562 210.089844 252.699219 209.910156 253.097656 C 209.730469 253.496094 209.296875 253.707031 208.871094 253.601562 C 208.300781 253.460938 207.761719 253.347656 207.460938 253.523438 C 207.175781 253.691406 206.96875 254.171875 206.746094 254.683594 C 206.5 255.265625 206.21875 255.921875 205.691406 256.414062 C 205.0625 257.003906 204.195312 257.257812 203.433594 257.480469 C 203.164062 257.558594 202.914062 257.632812 202.707031 257.710938 C 202.628906 257.742188 202.542969 257.777344 202.464844 257.804688 C 202.464844 257.820312 202.46875 257.832031 202.472656 257.847656 C 202.503906 257.964844 202.542969 258.121094 202.582031 258.296875 C 205.597656 257.476562 208.460938 256.644531 211.195312 255.789062 C 211.164062 255.457031 211.207031 255.144531 211.265625 254.851562 C 211.472656 253.792969 211.828125 252.78125 212.316406 251.828125 Z M 220.792969 254.503906 C 220.785156 254.484375 220.78125 254.464844 220.769531 254.445312 C 217.9375 255.492188 214.984375 256.492188 211.878906 257.46875 C 211.976562 257.488281 212.070312 257.511719 212.164062 257.53125 C 212.75 257.671875 213.304688 257.800781 213.753906 257.675781 C 215.636719 257.152344 217.527344 256.578125 219.375 255.964844 C 219.703125 255.855469 220.382812 255.46875 220.773438 255.191406 C 220.820312 255.160156 220.902344 255.101562 220.949219 255.058594 C 220.933594 254.917969 220.84375 254.667969 220.792969 254.503906 Z M 188.972656 254.65625 L 189.019531 254.628906 C 189.851562 254.15625 190.710938 253.675781 191.660156 253.332031 C 191.59375 252.957031 191.59375 252.554688 191.683594 252.148438 C 191.734375 251.933594 191.808594 251.730469 191.878906 251.527344 C 191.9375 251.367188 192.035156 251.101562 192.035156 251.003906 C 192.035156 250.996094 192.03125 250.988281 192.027344 250.980469 C 192.015625 250.972656 191.988281 250.960938 191.957031 250.945312 C 191.710938 250.84375 191.515625 250.828125 191.183594 251.035156 C 190.921875 251.199219 190.601562 251.476562 190.550781 251.867188 C 190.496094 252.28125 190.167969 252.605469 189.753906 252.648438 C 189.339844 252.691406 188.949219 252.445312 188.808594 252.054688 C 188.761719 251.925781 188.722656 251.792969 188.679688 251.65625 C 188.570312 251.300781 188.457031 250.933594 188.28125 250.824219 C 188.050781 250.6875 187.785156 250.683594 187.328125 250.6875 C 186.738281 250.699219 186.007812 250.707031 185.269531 250.210938 C 184.421875 249.636719 184.125 248.601562 183.882812 247.773438 C 183.820312 247.550781 183.757812 247.34375 183.695312 247.167969 C 183.691406 247.160156 183.691406 247.15625 183.6875 247.148438 C 183.441406 247.292969 183.109375 247.5 182.753906 247.730469 C 184.433594 251.007812 186.132812 253.550781 188.3125 255.148438 C 188.5 254.96875 188.71875 254.800781 188.972656 254.65625 Z M 180.761719 249.140625 C 180.972656 250.230469 181.613281 251.050781 182.335938 251.980469 C 182.75 252.507812 183.175781 253.054688 183.53125 253.671875 C 183.828125 253.71875 184.128906 253.769531 184.429688 253.847656 C 183.289062 252.40625 182.261719 250.695312 181.257812 248.761719 C 181.066406 248.90625 180.890625 249.035156 180.761719 249.140625 Z M 190 256.148438 C 190.519531 256.386719 191.066406 256.582031 191.644531 256.730469 C 192.132812 256.175781 192.675781 255.6875 193.230469 255.230469 C 193.0625 255.160156 192.890625 255.074219 192.710938 254.953125 C 192.6875 254.949219 192.660156 254.949219 192.636719 254.941406 C 192.597656 254.929688 192.570312 254.925781 192.34375 255.003906 C 191.539062 255.28125 190.789062 255.703125 190 256.148438 Z M 187.59375 256.886719 C 187.953125 257.492188 188.308594 257.996094 188.859375 258.265625 C 190.832031 259.214844 192.929688 259.761719 195.253906 259.933594 C 195.578125 259.960938 196.34375 259.78125 197.125 259.507812 L 197.234375 259.472656 C 197.417969 259.410156 197.476562 259.386719 197.503906 259.355469 C 197.582031 259.25 197.605469 258.847656 197.617188 258.585938 C 196.464844 258.78125 195.386719 258.886719 194.382812 258.886719 C 191.660156 258.882812 189.464844 258.175781 187.59375 256.886719 Z M 195.222656 255.949219 C 194.753906 256.316406 194.304688 256.675781 193.882812 257.050781 C 194.886719 257.09375 195.984375 257.023438 197.175781 256.824219 C 196.992188 256.691406 196.75 256.558594 196.425781 256.421875 C 195.96875 256.234375 195.589844 256.089844 195.222656 255.949219 Z M 195.222656 255.949219 " fill-opacity="1" fill-rule="nonzero"/></svg>