<svg xmlns="http://www.w3.org/2000/svg" xmlns:xlink="http://www.w3.org/1999/xlink" width="500" zoomAndPan="magnify" viewBox="0 0 375 525.000007" height="700" preserveAspectRatio="xMidYMid meet" version="1.0"><defs><clipPath id="id1"><path d="M 0.355469 0 L 374.640625 0 L 374.640625 524 L 0.355469 524 Z M 0.355469 0 " clip-rule="nonzero"/></clipPath><clipPath id="id2"><path d="M 94.761719 123.019531 L 280.40625 123.019531 L 280.40625 400.738281 L 94.761719 400.738281 Z M 94.761719 123.019531 " clip-rule="nonzero"/></clipPath></defs><g clip-path="url(#id1)"><path fill="#ffffff" d="M 0.355469 0 L 374.644531 0 L 374.644531 531.488281 L 0.355469 531.488281 Z M 0.355469 0 " fill-opacity="1" fill-rule="nonzero"/><path fill="#ffffff" d="M 0.355469 0 L 374.644531 0 L 374.644531 524 L 0.355469 524 Z M 0.355469 0 " fill-opacity="1" fill-rule="nonzero"/><path fill="#000000" d="M 0.355469 0 L 374.644531 0 L 374.644531 524 L 0.355469 524 Z M 0.355469 0 " fill-opacity="1" fill-rule="nonzero"/></g><g clip-path="url(#id2)"><path fill="#3c3c3b" d="M 278.960938 268.246094 C 277.742188 268.523438 276.460938 268.644531 275.21875 268.644531 L 278.539062 276.9375 C 278.722656 277.390625 278.6875 277.890625 278.484375 278.300781 C 278.699219 278.644531 278.839844 279.050781 278.894531 279.484375 C 279.023438 280.519531 278.628906 281.585938 277.871094 282.265625 C 277.160156 282.898438 276.214844 283.230469 275.136719 283.230469 C 274.765625 283.230469 274.378906 283.191406 273.980469 283.113281 C 273.535156 283.023438 272.878906 282.847656 272.335938 282.332031 C 271.6875 281.71875 271.515625 280.914062 271.4375 280.570312 C 271.28125 279.832031 271.117188 278.730469 271.511719 277.628906 C 271.929688 276.464844 272.96875 275.578125 274.257812 275.261719 L 271.082031 267.339844 C 270.855469 266.773438 270.957031 266.128906 271.34375 265.660156 C 271.734375 265.1875 272.351562 264.964844 272.953125 265.082031 C 274.679688 265.410156 276.5 265.375 278.210938 264.980469 C 279.113281 264.777344 280.011719 265.34375 280.21875 266.242188 C 280.429688 267.144531 279.867188 268.039062 278.960938 268.246094 Z M 264.03125 283.070312 C 260.367188 282.679688 257.445312 285.550781 255.925781 288.367188 L 255.804688 288.601562 C 255.546875 289.089844 255.28125 289.589844 255.015625 289.75 C 254.796875 289.882812 254.324219 289.941406 254.015625 289.976562 C 253.625 290.027344 253.234375 290.074219 252.847656 290.117188 C 252.523438 290.15625 252.203125 290.1875 251.878906 290.226562 C 251.808594 289.480469 251.71875 288.734375 251.613281 287.992188 C 251.578125 287.765625 251.546875 287.53125 251.507812 287.304688 C 251.429688 286.777344 251.339844 286.253906 251.246094 285.734375 C 251.199219 285.484375 251.152344 285.234375 251.105469 284.984375 C 251.007812 284.449219 250.894531 283.921875 250.777344 283.394531 C 250.726562 283.179688 250.683594 282.96875 250.640625 282.753906 C 250.351562 281.503906 250.023438 280.261719 249.667969 279.015625 C 249.632812 278.890625 249.597656 278.765625 249.558594 278.640625 C 249.550781 278.605469 249.542969 278.574219 249.53125 278.539062 C 249.316406 277.808594 249.089844 277.074219 248.855469 276.347656 C 248.789062 276.140625 248.714844 275.929688 248.648438 275.726562 C 248.476562 275.191406 248.292969 274.667969 248.109375 274.132812 C 248.03125 273.898438 247.949219 273.667969 247.863281 273.441406 C 247.675781 272.90625 247.488281 272.375 247.285156 271.847656 C 247.214844 271.648438 247.140625 271.445312 247.070312 271.253906 C 246.773438 270.464844 246.476562 269.675781 246.164062 268.886719 C 246.097656 268.722656 246.03125 268.550781 245.964844 268.382812 C 245.117188 266.246094 244.226562 264.121094 243.332031 262 C 243.292969 261.914062 243.261719 261.828125 243.222656 261.738281 C 243.222656 261.738281 243.222656 261.738281 243.222656 261.734375 C 243.175781 261.628906 243.132812 261.523438 243.089844 261.414062 C 243.089844 261.40625 243.082031 261.40625 243.082031 261.402344 C 242.832031 260.808594 242.582031 260.21875 242.328125 259.625 C 241.5 257.671875 240.664062 255.71875 239.859375 253.765625 C 239.128906 252 234.425781 243.191406 229.398438 235.289062 C 229.265625 235.082031 229.144531 234.890625 229.015625 234.6875 C 228.988281 234.472656 228.957031 234.257812 228.917969 234.046875 C 228.90625 233.980469 228.886719 233.914062 228.871094 233.847656 C 228.839844 233.703125 228.804688 233.550781 228.773438 233.40625 C 228.753906 233.335938 228.734375 233.261719 228.714844 233.191406 C 228.675781 233.046875 228.632812 232.90625 228.589844 232.761719 C 228.570312 232.703125 228.550781 232.640625 228.53125 232.585938 C 228.464844 232.386719 228.394531 232.1875 228.316406 231.988281 C 228.253906 231.824219 228.195312 231.671875 228.125 231.515625 C 228.121094 231.496094 228.117188 231.488281 228.109375 231.46875 C 228.097656 231.449219 228.09375 231.429688 228.082031 231.410156 C 227.960938 231.125 227.835938 230.847656 227.722656 230.582031 C 225.417969 225.527344 223.152344 222.167969 220.375 219.691406 C 217.8125 217.414062 214.789062 215.871094 211.113281 214.980469 C 203.785156 213.207031 196.167969 213.332031 188.808594 213.453125 L 188.511719 213.460938 C 186.773438 213.488281 185.015625 213.582031 183.242188 213.734375 C 182.878906 213.761719 182.511719 213.800781 182.144531 213.839844 C 181.355469 213.914062 180.5625 214.003906 179.765625 214.105469 C 179.632812 214.121094 179.503906 214.136719 179.371094 214.152344 C 178.867188 214.222656 178.359375 214.289062 177.855469 214.363281 C 177.4375 214.425781 177.019531 214.488281 176.601562 214.558594 C 175.179688 214.785156 173.734375 215.058594 172.273438 215.359375 C 171.839844 215.449219 171.410156 215.535156 170.976562 215.628906 C 170.027344 215.839844 169.074219 216.0625 168.105469 216.300781 C 168.105469 216.296875 168.101562 216.296875 168.101562 216.292969 C 168.089844 216.273438 168.078125 216.253906 168.070312 216.234375 C 166.4375 213.265625 164.722656 210.363281 163.035156 207.511719 C 161.039062 204.140625 158.976562 200.65625 157.121094 197.160156 C 153.734375 190.792969 149.613281 184.40625 145.628906 178.234375 C 142.503906 173.394531 139.273438 168.390625 136.484375 163.511719 C 136.332031 163.242188 136.175781 162.988281 136.019531 162.738281 C 135.914062 162.5625 135.804688 162.390625 135.699219 162.21875 C 135.730469 162.195312 135.769531 162.171875 135.804688 162.144531 C 136.085938 161.941406 136.617188 161.5625 136.949219 160.929688 C 137.503906 159.871094 137.1875 158.757812 137.039062 158.226562 C 136.832031 157.503906 136.582031 156.601562 136.015625 155.789062 C 135.230469 154.667969 134.046875 154.03125 132.820312 154.085938 C 132.613281 154.097656 132.417969 154.125 132.234375 154.164062 C 132.21875 154.167969 132.207031 154.167969 132.191406 154.167969 C 132.09375 154.191406 132.011719 154.226562 131.917969 154.253906 C 131.722656 154.3125 131.546875 154.378906 131.378906 154.457031 C 131.316406 154.484375 131.257812 154.507812 131.199219 154.535156 C 131.042969 154.613281 130.898438 154.691406 130.773438 154.761719 L 115.050781 130.699219 C 114.613281 130.039062 114.230469 129.359375 113.863281 128.707031 C 112.808594 126.839844 111.71875 124.914062 109.523438 123.445312 C 109.144531 123.191406 108.683594 123.101562 108.238281 123.199219 C 103.957031 124.109375 100.582031 127.167969 97.867188 129.628906 C 96.335938 131.015625 94.765625 132.71875 94.816406 134.773438 C 94.851562 136.1875 95.617188 137.488281 97.15625 138.75 C 99.113281 140.355469 100.960938 142.320312 102.746094 144.21875 C 103.574219 145.101562 104.433594 146.015625 105.292969 146.882812 C 106.777344 148.382812 108.265625 149.878906 109.761719 151.378906 C 112.675781 154.304688 115.6875 157.328125 118.617188 160.332031 C 118.945312 160.667969 119.261719 161.019531 119.582031 161.367188 C 119.5625 161.382812 119.550781 161.402344 119.535156 161.414062 C 119.40625 161.539062 119.292969 161.679688 119.179688 161.835938 C 119.164062 161.851562 119.152344 161.867188 119.136719 161.890625 C 119.046875 162.015625 118.964844 162.160156 118.886719 162.3125 C 118.867188 162.34375 118.851562 162.371094 118.839844 162.40625 C 118.691406 162.734375 118.585938 163.117188 118.535156 163.566406 C 118.535156 163.582031 118.53125 163.59375 118.53125 163.609375 C 118.523438 163.703125 118.511719 163.800781 118.511719 163.894531 C 118.507812 164.019531 118.507812 164.148438 118.511719 164.289062 C 118.578125 165.773438 119.292969 167.089844 120.414062 167.8125 C 120.992188 168.183594 121.652344 168.378906 122.332031 168.378906 C 122.804688 168.378906 123.28125 168.289062 123.746094 168.101562 C 123.996094 168 124.25 167.902344 124.5 167.800781 C 124.761719 168.1875 125.007812 168.578125 125.261719 168.972656 C 125.496094 169.328125 125.730469 169.683594 125.957031 170.039062 C 126.074219 170.21875 126.191406 170.402344 126.308594 170.582031 C 126.746094 171.269531 127.179688 171.964844 127.613281 172.652344 C 128.964844 174.804688 130.359375 177.023438 131.851562 179.144531 C 135.46875 184.300781 138.734375 189.902344 141.890625 195.324219 C 143.609375 198.269531 145.382812 201.3125 147.195312 204.257812 C 150.1875 209.109375 153.09375 214.09375 155.851562 219.082031 C 156.042969 219.425781 156.230469 219.777344 156.421875 220.125 C 156.269531 220.191406 156.125 220.257812 155.976562 220.332031 C 155.636719 220.480469 155.296875 220.636719 154.964844 220.792969 C 153.535156 221.46875 152.171875 222.191406 150.882812 222.957031 C 150.878906 222.957031 150.871094 222.960938 150.867188 222.960938 C 150.828125 222.984375 150.789062 223.011719 150.75 223.035156 C 150.480469 223.195312 150.222656 223.363281 149.960938 223.523438 C 149.769531 223.644531 149.574219 223.761719 149.394531 223.882812 C 149.101562 224.070312 148.820312 224.261719 148.542969 224.453125 C 147.664062 225.054688 146.824219 225.675781 146.027344 226.324219 C 140.417969 230.882812 139.21875 241.488281 138.640625 246.589844 C 138.523438 247.605469 138.441406 248.6875 138.730469 249.800781 C 138.8125 250.128906 138.929688 250.441406 139.0625 250.734375 C 138.777344 251.574219 138.507812 252.414062 138.238281 253.257812 C 138.152344 253.535156 138.066406 253.816406 137.976562 254.09375 C 137.792969 254.675781 137.617188 255.261719 137.445312 255.847656 C 137.355469 256.152344 137.261719 256.449219 137.171875 256.75 C 136.9375 257.550781 136.710938 258.347656 136.492188 259.144531 C 136.464844 259.238281 136.445312 259.332031 136.414062 259.429688 C 136.332031 259.738281 136.253906 260.035156 136.175781 260.339844 C 136.015625 260.953125 135.847656 261.5625 135.699219 262.167969 C 135.46875 263.082031 135.25 263.988281 135.042969 264.890625 C 135.035156 264.914062 135.03125 264.9375 135.027344 264.953125 C 134.992188 265.097656 134.964844 265.242188 134.929688 265.386719 C 134.730469 266.273438 134.535156 267.15625 134.363281 268.027344 C 134.234375 268.644531 134.121094 269.253906 134.007812 269.859375 C 133.8125 270.886719 133.636719 271.90625 133.484375 272.890625 C 131.816406 283.703125 130.910156 290.898438 133.191406 302.214844 C 133.980469 306.140625 134.882812 309.332031 136.015625 312.265625 C 141.371094 326.101562 154.257812 337.527344 169.640625 342.070312 C 170.410156 342.296875 171.191406 342.503906 171.976562 342.699219 C 172 342.703125 172.023438 342.710938 172.042969 342.714844 C 172.515625 342.832031 172.988281 342.941406 173.46875 343.042969 C 173.789062 343.113281 174.117188 343.179688 174.445312 343.246094 C 174.445312 343.246094 174.445312 343.246094 174.453125 343.246094 C 175.367188 343.429688 176.296875 343.597656 177.238281 343.734375 C 177.863281 343.832031 178.5 343.917969 179.136719 343.996094 C 179.242188 344.007812 179.347656 344.023438 179.460938 344.035156 C 180.109375 344.113281 180.765625 344.179688 181.421875 344.242188 C 181.421875 344.242188 181.421875 344.242188 181.429688 344.242188 C 182.386719 345.382812 183.335938 346.527344 184.28125 347.675781 C 184.351562 347.757812 184.421875 347.847656 184.492188 347.933594 C 184.492188 347.933594 184.5 347.9375 184.5 347.9375 C 185.855469 349.585938 187.199219 351.238281 188.539062 352.886719 C 188.734375 353.125 188.929688 353.363281 189.125 353.609375 C 190.425781 355.214844 191.714844 356.824219 193 358.414062 C 192.171875 359.230469 191.332031 360.03125 190.476562 360.820312 C 190.195312 361.074219 189.917969 361.328125 189.640625 361.585938 C 189.339844 361.855469 189.035156 362.128906 188.730469 362.394531 C 188.054688 362.988281 187.371094 363.578125 186.683594 364.15625 C 185.527344 365.113281 183.59375 366.722656 182.25 368.828125 C 182.191406 368.792969 182.128906 368.773438 182.0625 368.746094 C 181.992188 368.710938 181.917969 368.675781 181.847656 368.65625 C 181.730469 368.617188 181.605469 368.582031 181.484375 368.570312 C 180.824219 368.488281 180.34375 368.773438 180.109375 368.925781 C 178.921875 369.445312 176.109375 371.347656 175.78125 371.570312 C 172.261719 373.960938 171.816406 374.542969 171.914062 375.585938 C 172.226562 378.960938 174.046875 381.28125 175.648438 383.324219 C 176.519531 384.441406 177.34375 385.496094 177.925781 386.671875 C 178.171875 387.160156 178.636719 387.503906 179.175781 387.585938 L 179.714844 387.664062 C 181.289062 387.890625 182.144531 388.042969 182.980469 388.824219 C 183.679688 389.480469 184.21875 390.402344 184.792969 391.382812 C 185.75 393.027344 186.832031 394.886719 188.980469 395.910156 C 193.039062 397.859375 197.332031 398.976562 202.085938 399.324219 C 202.195312 399.332031 202.304688 399.335938 202.421875 399.335938 C 203.886719 399.335938 205.835938 398.738281 206.914062 398.359375 L 207.089844 398.296875 C 207.644531 398.109375 208.332031 397.875 208.972656 397.183594 C 209.980469 396.09375 210.035156 394.550781 210.078125 393.417969 C 210.089844 393.152344 210.097656 392.902344 210.125 392.6875 C 210.457031 389.835938 209 387.714844 205.792969 386.394531 C 204.28125 385.773438 203.167969 385.371094 201.988281 384.949219 L 200.882812 384.550781 C 200.695312 384.484375 200.523438 384.421875 200.355469 384.367188 C 199.738281 384.164062 199.53125 384.089844 199.214844 383.761719 C 198.933594 383.472656 198.835938 382.890625 198.96875 382.285156 C 199.007812 382.109375 199.109375 381.832031 199.203125 381.566406 C 199.464844 380.835938 199.792969 379.9375 199.660156 379 C 199.472656 377.683594 198.757812 376.792969 197.484375 376.257812 C 197.21875 376.148438 196.957031 376.070312 196.691406 376.007812 C 196.824219 375.757812 196.984375 375.507812 197.179688 375.265625 C 197.273438 375.148438 197.375 375.027344 197.480469 374.90625 C 197.484375 374.898438 197.496094 374.886719 197.503906 374.882812 C 197.652344 374.714844 197.8125 374.550781 197.988281 374.382812 C 198.019531 374.351562 198.058594 374.3125 198.097656 374.277344 C 198.269531 374.109375 198.453125 373.945312 198.648438 373.773438 C 198.675781 373.746094 198.710938 373.71875 198.738281 373.695312 C 198.835938 373.605469 198.941406 373.511719 199.054688 373.421875 C 199.066406 373.410156 199.082031 373.402344 199.09375 373.390625 C 199.125 373.355469 199.164062 373.328125 199.199219 373.296875 C 199.347656 373.167969 199.503906 373.039062 199.660156 372.90625 C 200.171875 372.480469 200.707031 372.035156 201.199219 371.570312 C 201.632812 371.164062 202.0625 370.753906 202.496094 370.34375 C 202.972656 370.976562 203.453125 371.609375 203.917969 372.246094 C 203.925781 372.257812 203.929688 372.261719 203.941406 372.273438 C 204.175781 372.589844 204.402344 372.914062 204.628906 373.234375 C 204.820312 373.496094 205.007812 373.757812 205.191406 374.023438 C 205.265625 374.121094 205.335938 374.226562 205.402344 374.328125 C 205.402344 374.328125 205.402344 374.332031 205.410156 374.332031 C 206.242188 375.539062 207.054688 376.753906 207.816406 377.996094 C 207.898438 378.136719 207.984375 378.273438 208.070312 378.414062 C 208.382812 378.921875 208.683594 379.4375 208.980469 379.957031 C 209.050781 380.078125 209.125 380.199219 209.191406 380.328125 C 209.535156 380.941406 209.867188 381.570312 210.191406 382.199219 C 210.257812 382.324219 210.320312 382.453125 210.378906 382.582031 C 210.472656 382.773438 210.5625 382.972656 210.65625 383.167969 C 210.8125 383.492188 210.96875 383.8125 211.117188 384.132812 C 211.203125 384.3125 211.28125 384.488281 211.359375 384.667969 C 211.640625 385.316406 211.917969 385.964844 212.175781 386.625 L 212.253906 386.832031 C 212.570312 387.652344 212.910156 388.535156 213.386719 389.351562 C 213.308594 389.390625 213.238281 389.429688 213.164062 389.472656 C 213.148438 389.484375 213.125 389.496094 213.109375 389.507812 C 213.066406 389.535156 213.027344 389.5625 212.988281 389.59375 C 212.949219 389.625 212.910156 389.652344 212.875 389.679688 C 212.875 389.679688 212.875 389.679688 212.871094 389.679688 C 212.796875 389.738281 212.738281 389.796875 212.679688 389.855469 C 212.640625 389.894531 212.609375 389.941406 212.574219 389.980469 C 212.558594 390 212.542969 390.023438 212.527344 390.046875 C 212.496094 390.085938 212.46875 390.121094 212.449219 390.160156 C 212.429688 390.191406 212.414062 390.21875 212.402344 390.246094 C 212.386719 390.277344 212.363281 390.3125 212.347656 390.351562 C 212.324219 390.40625 212.304688 390.457031 212.28125 390.503906 C 212.277344 390.515625 212.269531 390.527344 212.269531 390.535156 C 212.246094 390.59375 212.230469 390.65625 212.214844 390.710938 C 212.074219 391.261719 212.203125 391.726562 212.257812 391.925781 C 212.304688 392.082031 212.390625 392.441406 212.507812 392.925781 C 214.210938 399.757812 214.433594 400.652344 216.027344 400.652344 C 216.035156 400.652344 216.039062 400.652344 216.039062 400.652344 C 218.324219 400.644531 220.394531 399.964844 222.398438 399.308594 C 223.945312 398.804688 225.402344 398.324219 226.882812 398.171875 C 227.480469 398.109375 228.003906 397.726562 228.25 397.171875 L 228.292969 397.066406 C 229.003906 395.433594 229.324219 394.839844 230.105469 394.558594 C 230.878906 394.28125 231.878906 394.511719 233.03125 394.785156 C 234.421875 395.113281 235.988281 395.480469 237.652344 395.019531 C 241.203125 394.03125 244.773438 392.949219 248.265625 391.804688 C 249.386719 391.4375 250.996094 390.460938 251.75 389.929688 C 252.179688 389.628906 252.824219 389.175781 253.21875 388.363281 C 253.808594 387.160156 253.359375 385.820312 253.023438 384.851562 C 252.933594 384.582031 252.847656 384.328125 252.808594 384.152344 C 252.171875 381.414062 250.101562 379.007812 247.390625 377.875 C 245.234375 376.96875 242.753906 376.832031 240.015625 377.457031 C 239.679688 377.535156 239.347656 377.625 239.007812 377.707031 C 238.246094 377.90625 237.523438 378.097656 236.839844 378.136719 C 236.332031 378.164062 235.394531 378.113281 234.777344 377.46875 C 234.609375 377.296875 234.4375 377.050781 234.25 376.792969 C 233.804688 376.171875 233.246094 375.398438 232.335938 374.9375 C 231.273438 374.40625 229.996094 374.457031 228.742188 375.078125 C 228.394531 375.25 228.066406 375.460938 227.765625 375.699219 C 227.710938 375.742188 227.65625 375.78125 227.605469 375.824219 C 227.441406 375.960938 227.296875 376.097656 227.152344 376.246094 C 227.109375 376.296875 227.066406 376.34375 227.019531 376.390625 C 226.976562 376.441406 226.925781 376.492188 226.882812 376.546875 C 226.847656 376.585938 226.816406 376.628906 226.78125 376.667969 C 226.546875 376.964844 226.335938 377.273438 226.164062 377.609375 C 226.164062 377.609375 226.164062 377.609375 226.164062 377.601562 C 225.765625 377.136719 225.371094 376.664062 224.980469 376.191406 C 224.929688 376.132812 224.878906 376.066406 224.824219 376.003906 C 224.472656 375.578125 224.125 375.136719 223.785156 374.703125 C 223.738281 374.644531 223.691406 374.589844 223.644531 374.527344 C 223.117188 373.851562 222.59375 373.167969 222.078125 372.480469 C 221.964844 372.328125 221.855469 372.179688 221.742188 372.03125 C 221.242188 371.351562 220.742188 370.675781 220.253906 370 C 220.199219 369.921875 220.144531 369.84375 220.085938 369.765625 C 219.992188 369.632812 219.898438 369.503906 219.804688 369.371094 C 219.597656 369.082031 219.386719 368.789062 219.179688 368.5 C 219.101562 368.390625 219.019531 368.273438 218.941406 368.160156 C 218.773438 367.929688 218.613281 367.695312 218.445312 367.460938 C 218.324219 367.289062 218.203125 367.117188 218.085938 366.945312 C 218.011719 366.847656 217.941406 366.742188 217.867188 366.640625 C 217.53125 366.15625 217.191406 365.675781 216.851562 365.191406 C 215.515625 363.289062 214.144531 361.328125 212.753906 359.421875 C 212.964844 359.113281 213.164062 358.816406 213.367188 358.515625 C 213.460938 358.371094 213.558594 358.222656 213.648438 358.078125 C 213.859375 357.742188 214.058594 357.429688 214.25 357.128906 C 214.253906 357.121094 214.253906 357.117188 214.261719 357.105469 C 214.355469 356.957031 214.4375 356.8125 214.523438 356.667969 C 214.523438 356.667969 214.523438 356.660156 214.527344 356.660156 C 214.554688 356.617188 214.578125 356.574219 214.605469 356.527344 C 214.6875 356.382812 214.773438 356.246094 214.84375 356.117188 C 215.34375 355.21875 215.726562 354.324219 216.027344 353.441406 C 216.078125 353.289062 216.140625 353.136719 216.183594 352.980469 C 216.421875 352.195312 216.585938 351.410156 216.683594 350.632812 C 216.71875 350.367188 216.746094 350.101562 216.761719 349.835938 C 216.769531 349.78125 216.773438 349.722656 216.773438 349.667969 C 216.789062 349.414062 216.789062 349.160156 216.796875 348.902344 C 216.796875 348.609375 216.789062 348.320312 216.773438 348.03125 C 216.769531 347.941406 216.769531 347.855469 216.761719 347.765625 C 216.757812 347.675781 216.75 347.585938 216.738281 347.503906 C 216.71875 347.222656 216.691406 346.945312 216.652344 346.667969 C 216.644531 346.632812 216.640625 346.605469 216.632812 346.570312 C 216.59375 346.289062 216.546875 346.003906 216.496094 345.722656 C 216.484375 345.671875 216.480469 345.617188 216.46875 345.566406 C 216.46875 345.566406 216.46875 345.5625 216.46875 345.5625 C 216.34375 344.941406 216.191406 344.324219 216.011719 343.707031 C 216.011719 343.703125 216.011719 343.703125 216.011719 343.695312 C 215.804688 343.003906 215.574219 342.320312 215.3125 341.636719 C 215.066406 341.003906 214.800781 340.378906 214.523438 339.761719 C 215.351562 339.46875 216.160156 339.15625 216.960938 338.839844 C 217.136719 338.773438 217.308594 338.707031 217.480469 338.636719 C 218.257812 338.324219 219.023438 338.003906 219.78125 337.664062 C 219.921875 337.601562 220.054688 337.542969 220.191406 337.480469 C 220.871094 337.175781 221.542969 336.863281 222.207031 336.542969 C 222.339844 336.476562 222.476562 336.414062 222.613281 336.347656 C 223.335938 335.992188 224.039062 335.628906 224.734375 335.253906 C 224.90625 335.160156 225.085938 335.066406 225.257812 334.972656 C 225.957031 334.589844 226.660156 334.195312 227.335938 333.796875 C 227.355469 333.785156 227.371094 333.777344 227.382812 333.769531 C 227.453125 333.722656 227.519531 333.679688 227.59375 333.636719 C 229.101562 332.730469 230.550781 331.78125 231.941406 330.789062 C 232.601562 330.316406 233.246094 329.828125 233.882812 329.332031 C 233.941406 329.285156 234.003906 329.238281 234.066406 329.1875 C 234.082031 329.171875 234.097656 329.160156 234.113281 329.144531 C 235.476562 328.074219 236.765625 326.953125 237.992188 325.792969 C 238.539062 325.269531 239.074219 324.738281 239.597656 324.199219 C 239.664062 324.132812 239.726562 324.066406 239.785156 324 C 239.878906 323.898438 239.96875 323.800781 240.058594 323.699219 C 240.535156 323.191406 241.007812 322.679688 241.460938 322.15625 C 241.621094 321.96875 241.777344 321.773438 241.933594 321.582031 C 243.339844 319.898438 244.625 318.15625 245.753906 316.339844 C 246.164062 315.679688 246.550781 315.015625 246.925781 314.34375 C 247.21875 313.804688 247.496094 313.273438 247.765625 312.738281 C 247.84375 312.578125 247.921875 312.421875 248 312.261719 C 248.191406 311.867188 248.375 311.46875 248.554688 311.074219 C 248.625 310.917969 248.691406 310.761719 248.765625 310.609375 C 248.988281 310.085938 249.203125 309.570312 249.40625 309.046875 C 249.414062 309.015625 249.425781 308.988281 249.4375 308.953125 C 249.832031 307.917969 250.175781 306.882812 250.476562 305.855469 C 250.535156 305.664062 250.59375 305.46875 250.644531 305.273438 C 251.0625 303.765625 251.375 302.265625 251.601562 300.769531 C 251.601562 300.769531 251.601562 300.769531 251.601562 300.761719 C 251.707031 300.070312 251.800781 299.375 251.867188 298.679688 C 251.875 298.648438 251.875 298.621094 251.875 298.585938 C 252 297.28125 252.0625 295.984375 252.066406 294.683594 C 252.066406 294.3125 252.066406 293.941406 252.058594 293.570312 C 252.433594 293.523438 252.820312 293.476562 253.207031 293.429688 C 253.609375 293.386719 254.007812 293.339844 254.410156 293.292969 C 255.171875 293.199219 255.980469 293.0625 256.753906 292.59375 C 257.792969 291.953125 258.324219 290.960938 258.746094 290.160156 L 258.863281 289.949219 C 259.820312 288.175781 261.636719 286.175781 263.660156 286.394531 C 264.574219 286.492188 265.40625 285.828125 265.507812 284.90625 C 265.617188 283.988281 264.957031 283.164062 264.03125 283.070312 Z M 264.03125 283.070312 " fill-opacity="1" fill-rule="nonzero"/></g><path fill="#aa511f" d="M 210.65625 356.566406 L 203.464844 346.816406 C 203.320312 345.496094 202.894531 344.242188 202.367188 343.085938 C 205.375 342.507812 208.378906 341.761719 211.339844 340.839844 C 213.464844 345.375 214.542969 349.828125 211.929688 354.503906 C 211.625 355.042969 211.175781 355.78125 210.65625 356.566406 Z M 195.113281 361.046875 C 193.09375 363.023438 190.996094 364.929688 188.835938 366.730469 C 186.765625 368.449219 184.886719 370.289062 184.316406 372.28125 C 184.34375 372.367188 184.371094 372.457031 184.390625 372.546875 C 184.6875 373.566406 185.058594 374.839844 185.625 375.214844 C 186.105469 375.539062 186.636719 375.546875 187.539062 375.53125 C 188.558594 375.519531 189.824219 375.5 191.09375 376.265625 C 191.546875 376.542969 191.902344 376.878906 192.1875 377.253906 C 192.433594 377.046875 192.695312 376.859375 192.976562 376.679688 C 192.988281 376.675781 193 376.667969 193.015625 376.660156 C 193.394531 373.785156 195.644531 371.898438 197.507812 370.335938 C 198.007812 369.921875 198.480469 369.527344 198.902344 369.128906 C 199.414062 368.648438 199.921875 368.160156 200.425781 367.679688 C 199.453125 366.445312 198.46875 365.226562 197.492188 364.011719 Z M 209.605469 360.78125 L 197.164062 343.90625 C 193.933594 344.3125 190.714844 344.519531 187.554688 344.519531 C 187.039062 344.519531 186.523438 344.5 186.003906 344.492188 C 189.675781 348.925781 193.289062 353.414062 196.808594 357.804688 L 200.109375 361.914062 C 205.898438 369.105469 211.878906 376.535156 215.304688 385.421875 L 215.390625 385.632812 C 215.773438 386.625 216.140625 387.574219 216.679688 388.21875 C 217.730469 387.914062 218.902344 387.5625 219.480469 387.027344 C 219.949219 386.59375 220.292969 385.792969 220.65625 384.945312 C 221.234375 383.601562 221.886719 382.082031 223.378906 381.21875 C 223.746094 381.007812 224.117188 380.867188 224.496094 380.765625 C 220.683594 376.464844 217.367188 371.734375 214.128906 367.105469 C 212.652344 365.019531 211.128906 362.851562 209.605469 360.78125 Z M 248.765625 294.207031 C 248.804688 300.300781 247.46875 306.449219 244.011719 312.746094 C 231.0625 336.28125 194.578125 345.957031 170.605469 338.867188 C 156.191406 334.613281 144.136719 323.960938 139.152344 311.070312 C 138.082031 308.316406 137.238281 305.296875 136.488281 301.5625 C 134.3125 290.777344 135.148438 284.167969 136.804688 273.40625 C 137.722656 267.472656 139.394531 260.679688 141.523438 254.007812 C 148.929688 261.996094 159.628906 266.363281 172.5625 266.636719 C 173.429688 266.652344 174.328125 266.664062 175.25 266.664062 C 193.222656 266.664062 221.300781 262.8125 228.292969 239.816406 C 232.726562 247.042969 236.273438 253.816406 236.773438 255.03125 C 237.585938 256.996094 238.417969 258.960938 239.253906 260.925781 C 243.566406 271.0625 247.730469 280.882812 248.605469 290.789062 C 247.960938 290.945312 247.320312 291.136719 246.6875 291.386719 C 243.628906 292.59375 241.515625 294.914062 241.035156 297.585938 C 240.871094 298.496094 241.476562 299.363281 242.386719 299.53125 C 242.488281 299.546875 242.589844 299.558594 242.6875 299.558594 C 243.484375 299.558594 244.191406 298.992188 244.335938 298.179688 C 244.65625 296.382812 246.398438 295.101562 247.921875 294.5 C 248.1875 294.386719 248.476562 294.296875 248.765625 294.207031 Z M 196.074219 276.066406 C 196.210938 276.097656 196.347656 276.113281 196.480469 276.113281 C 197.230469 276.113281 197.914062 275.609375 198.101562 274.847656 C 198.203125 274.460938 198.554688 274.105469 198.941406 274.003906 C 199.839844 273.777344 200.378906 272.867188 200.148438 271.96875 C 199.921875 271.074219 199.007812 270.535156 198.109375 270.765625 C 196.523438 271.167969 195.246094 272.457031 194.84375 274.039062 C 194.628906 274.933594 195.171875 275.84375 196.074219 276.066406 Z M 217.773438 283.125 C 217.652344 282.207031 216.808594 281.566406 215.890625 281.691406 C 214.972656 281.8125 214.332031 282.65625 214.453125 283.574219 C 214.714844 285.476562 214.65625 287.058594 214.265625 288.40625 C 213.269531 291.894531 209.667969 294.546875 205.699219 294.71875 C 201.984375 294.882812 198.019531 292.964844 195.351562 289.71875 C 194.761719 289 193.707031 288.902344 192.992188 289.484375 C 192.277344 290.074219 192.175781 291.121094 192.761719 291.835938 C 195.996094 295.773438 200.621094 298.070312 205.242188 298.070312 C 205.441406 298.070312 205.640625 298.066406 205.84375 298.058594 C 211.214844 297.828125 216.113281 294.152344 217.484375 289.324219 C 218.003906 287.523438 218.097656 285.492188 217.773438 283.125 Z M 222.140625 260.542969 C 222.339844 261.289062 223.015625 261.785156 223.757812 261.785156 C 223.902344 261.785156 224.046875 261.769531 224.191406 261.730469 C 225.097656 261.492188 226.03125 261.402344 226.964844 261.480469 C 227.882812 261.550781 228.695312 260.863281 228.765625 259.949219 C 228.839844 259.027344 228.15625 258.222656 227.230469 258.148438 C 225.914062 258.042969 224.601562 258.160156 223.328125 258.5 C 222.433594 258.730469 221.898438 259.648438 222.140625 260.542969 Z M 237.09375 305.507812 C 236.839844 304.003906 235.792969 302.671875 234.304688 301.9375 C 234.121094 301.851562 233.925781 301.765625 233.730469 301.683594 C 233.574219 301.617188 233.359375 301.523438 233.214844 301.449219 C 233.269531 301.257812 233.398438 300.96875 233.488281 300.777344 L 233.519531 300.707031 C 234.519531 298.457031 234.242188 296.359375 232.796875 295.222656 C 231.636719 294.308594 229.957031 294.246094 228.300781 295.050781 C 227.949219 295.222656 227.632812 295.40625 227.328125 295.585938 C 226.871094 295.851562 226.441406 296.101562 226.0625 296.195312 C 225.164062 296.410156 224.613281 297.316406 224.835938 298.214844 C 225.050781 299.113281 225.957031 299.664062 226.859375 299.441406 C 227.710938 299.234375 228.410156 298.824219 229.023438 298.464844 C 229.285156 298.308594 229.535156 298.164062 229.765625 298.046875 C 230.285156 297.792969 230.65625 297.808594 230.710938 297.832031 C 230.773438 297.925781 230.828125 298.488281 230.449219 299.335938 L 230.417969 299.40625 C 230.050781 300.234375 229.488281 301.484375 230.085938 302.816406 C 230.605469 303.988281 231.691406 304.449219 232.414062 304.753906 C 232.550781 304.8125 232.691406 304.871094 232.820312 304.9375 C 233.332031 305.183594 233.710938 305.625 233.78125 306.058594 C 233.835938 306.382812 233.660156 306.746094 233.46875 306.828125 C 232.621094 307.195312 232.230469 308.183594 232.601562 309.03125 C 232.875 309.664062 233.492188 310.035156 234.144531 310.035156 C 234.363281 310.035156 234.59375 309.992188 234.808594 309.898438 C 236.449219 309.199219 237.40625 307.351562 237.09375 305.507812 Z M 240.558594 271.179688 C 240.449219 270.265625 239.613281 269.605469 238.695312 269.722656 C 237.777344 269.832031 237.121094 270.664062 237.234375 271.582031 C 237.457031 273.441406 237.691406 275.359375 237.480469 277.15625 C 237.261719 278.976562 236.578125 280.503906 235.542969 281.453125 C 234.21875 282.667969 232.058594 283.085938 230.160156 282.492188 C 228.316406 281.914062 226.660156 280.464844 225.625 278.519531 C 225.191406 277.703125 224.171875 277.390625 223.363281 277.824219 C 222.542969 278.257812 222.234375 279.265625 222.667969 280.082031 C 224.113281 282.800781 226.480469 284.84375 229.167969 285.683594 C 230.074219 285.964844 231.011719 286.105469 231.941406 286.105469 C 234.132812 286.105469 236.273438 285.339844 237.824219 283.914062 C 239.441406 282.425781 240.503906 280.160156 240.816406 277.546875 C 241.058594 275.359375 240.804688 273.234375 240.558594 271.179688 Z M 240.558594 271.179688 " fill-opacity="1" fill-rule="nonzero"/><path fill="#9d9d9c" d="M 188.652344 225.136719 C 187.96875 225.53125 187.449219 225.980469 186.996094 226.382812 C 186.878906 226.480469 186.765625 226.582031 186.636719 226.6875 C 186.910156 226.359375 187.121094 226.035156 187.3125 225.75 C 187.433594 225.558594 187.554688 225.371094 187.699219 225.1875 C 187.96875 224.847656 188.496094 224.488281 189.023438 224.484375 C 189.03125 224.484375 189.03125 224.484375 189.035156 224.484375 C 189.285156 224.484375 189.402344 224.570312 189.402344 224.570312 C 189.417969 224.589844 189.441406 224.617188 189.464844 224.65625 C 189.21875 224.808594 188.886719 225.003906 188.652344 225.136719 Z M 179.105469 239 C 179.238281 238.550781 179.445312 238.226562 179.53125 238.082031 C 179.675781 237.847656 179.820312 237.5625 179.960938 237.28125 C 179.765625 237.238281 179.589844 237.191406 179.417969 237.152344 C 179.253906 237.113281 179.082031 237.070312 178.945312 237.042969 C 178.972656 237.148438 178.988281 237.253906 179.003906 237.363281 C 179.082031 237.917969 179.015625 238.472656 178.804688 239.039062 C 178.90625 239.023438 179.003906 239.011719 179.105469 239 Z M 186.550781 230.660156 C 185.886719 230.742188 185.421875 230.9375 185.148438 231.09375 C 185.316406 231.257812 185.472656 231.390625 185.636719 231.46875 C 186.261719 231.769531 187.535156 231.640625 188.078125 231.585938 C 188.597656 231.535156 189.128906 231.46875 189.53125 231.316406 C 189.539062 231.308594 189.546875 231.308594 189.558594 231.304688 C 189.324219 230.847656 189.039062 230.769531 188.917969 230.738281 C 188.652344 230.660156 188.234375 230.648438 187.867188 230.636719 C 187.4375 230.621094 186.960938 230.605469 186.550781 230.660156 C 186.550781 230.65625 186.550781 230.660156 186.550781 230.660156 Z M 181.046875 229.6875 C 180.394531 229.722656 179.746094 229.777344 179.183594 229.921875 C 177.871094 230.261719 176.820312 231.152344 175.730469 232.246094 C 175.761719 232.257812 175.800781 232.269531 175.839844 232.273438 C 176.441406 232.425781 177.136719 232.457031 177.875 232.496094 C 178.070312 232.507812 178.265625 232.519531 178.460938 232.535156 L 178.78125 232.558594 L 178.886719 232.613281 C 179.023438 232.6875 179.160156 232.722656 179.3125 232.742188 C 179.34375 232.746094 179.378906 232.746094 179.417969 232.746094 C 179.488281 232.746094 179.570312 232.734375 179.675781 232.707031 L 179.800781 232.679688 C 179.800781 232.679688 179.949219 232.714844 179.964844 232.714844 L 179.949219 232.6875 L 180.234375 232.378906 C 180.355469 232.253906 180.5 232.03125 180.527344 231.730469 L 180.574219 231.238281 C 180.589844 231.078125 180.566406 230.914062 180.507812 230.753906 L 180.390625 230.433594 L 180.628906 230.183594 C 180.785156 230.011719 180.917969 229.851562 181.046875 229.6875 Z M 171.226562 234.074219 C 171.375 234.039062 171.527344 234.019531 171.671875 233.996094 C 171.636719 233.941406 171.609375 233.882812 171.582031 233.828125 C 171.472656 233.917969 171.347656 234 171.226562 234.074219 Z M 173.972656 227.789062 C 174.523438 227.328125 175.179688 226.851562 175.953125 226.441406 C 175.214844 226.601562 174.484375 226.769531 173.773438 226.953125 C 173.851562 227.230469 173.921875 227.511719 173.972656 227.789062 Z M 186.933594 237.230469 C 186.8125 237.238281 186.695312 237.246094 186.578125 237.257812 C 185.871094 237.335938 185.25 237.554688 184.871094 237.847656 C 185.605469 237.691406 186.300781 237.488281 186.933594 237.230469 Z M 203.179688 231.726562 C 203.351562 231.746094 203.53125 231.765625 203.703125 231.777344 C 203.785156 231.78125 203.878906 231.785156 203.957031 231.785156 C 203.917969 231.671875 203.828125 231.527344 203.71875 231.503906 C 203.609375 231.488281 203.496094 231.476562 203.378906 231.476562 C 203.074219 231.476562 202.769531 231.535156 202.5 231.648438 C 202.734375 231.671875 202.960938 231.699219 203.179688 231.726562 Z M 202.289062 225.253906 C 201.960938 225.269531 201.578125 225.332031 201.183594 225.394531 C 201.160156 225.398438 201.128906 225.402344 201.09375 225.410156 C 200.949219 225.554688 200.777344 225.71875 200.570312 225.914062 C 201.101562 225.816406 201.679688 225.691406 202.296875 225.558594 L 202.640625 225.480469 C 202.816406 225.441406 202.972656 225.410156 203.101562 225.375 C 203.097656 225.375 203.089844 225.371094 203.085938 225.371094 C 202.816406 225.328125 202.550781 225.292969 202.289062 225.253906 Z M 192.882812 235.035156 C 193.175781 235.226562 193.644531 235.464844 193.878906 235.582031 C 194.109375 235.699219 194.179688 235.726562 194.273438 235.726562 C 194.429688 235.734375 194.6875 235.6875 194.851562 235.660156 C 195.523438 235.550781 196.195312 235.417969 196.859375 235.277344 C 195.808594 234.972656 194.632812 234.710938 193.734375 234.773438 C 193.28125 234.804688 193.019531 234.921875 192.882812 235.035156 Z M 168.824219 235.925781 L 168.496094 235.925781 C 168.089844 235.933594 167.75 235.949219 167.457031 235.972656 L 167.394531 235.984375 L 167.21875 236.003906 C 167.21875 236.003906 166.710938 235.78125 166.578125 235.722656 C 166.472656 235.714844 166.371094 235.710938 166.273438 235.703125 C 166.328125 235.75 166.378906 235.792969 166.433594 235.84375 L 166.773438 236.144531 L 166.550781 236.53125 C 166.472656 236.671875 166.429688 236.820312 166.410156 236.980469 C 166.40625 237.046875 166.402344 237.109375 166.40625 237.175781 C 166.445312 237.621094 166.746094 237.996094 167.179688 238.136719 C 167.300781 238.175781 167.417969 238.195312 167.523438 238.195312 C 167.558594 238.195312 167.585938 238.195312 167.667969 238.191406 C 168 238.164062 168.363281 238.152344 168.839844 238.152344 C 169.035156 238.152344 169.792969 238.15625 169.96875 238.15625 C 170.632812 238.15625 171.421875 238.140625 172.226562 238.003906 L 172.433594 237.96875 L 172.609375 238.082031 C 172.820312 238.207031 173.027344 238.335938 173.222656 238.453125 C 173.371094 238.539062 173.515625 238.628906 173.652344 238.707031 C 173.652344 238.707031 174.066406 238.214844 174.152344 238.113281 L 173.472656 237.757812 L 174.472656 237.28125 C 174.761719 237.140625 175.039062 237.003906 175.289062 236.863281 C 175.832031 236.566406 176.03125 235.886719 175.730469 235.34375 C 175.664062 235.226562 175.574219 235.117188 175.464844 235.027344 C 175.269531 234.867188 175.011719 234.777344 174.742188 234.777344 C 174.546875 234.777344 174.367188 234.824219 174.210938 234.910156 C 173.605469 235.246094 172.945312 235.578125 172.1875 235.753906 C 171.5 235.914062 170.777344 235.9375 170.101562 235.9375 C 169.886719 235.933594 169.035156 235.925781 168.824219 235.925781 Z M 209.402344 227.992188 C 209.414062 227.761719 209.0625 227.21875 207.738281 226.621094 C 207.683594 227.035156 207.527344 227.539062 207.160156 228.035156 C 207.082031 228.140625 206.992188 228.246094 206.898438 228.34375 C 207.308594 228.738281 207.65625 229.207031 207.910156 229.722656 C 209.339844 228.625 209.402344 227.996094 209.402344 227.992188 Z M 161.183594 232.203125 C 161.113281 232.160156 161 232.097656 160.847656 232.046875 C 160.722656 232.003906 160.742188 232.019531 160.742188 232.019531 C 160.691406 232.019531 160.546875 232.035156 160.164062 232.191406 C 159.941406 232.28125 159.71875 232.375 159.507812 232.476562 C 158.5625 233.078125 157.867188 233.601562 157.347656 234.050781 C 158.214844 233.921875 159.226562 233.652344 159.902344 233.257812 C 160.671875 232.808594 161.039062 232.417969 161.183594 232.203125 Z M 158.171875 237.808594 C 159.292969 238.21875 161.417969 238.992188 162.882812 238.992188 C 162.875 238.984375 162.863281 238.984375 162.859375 238.980469 L 162.410156 238.722656 C 161.183594 238.023438 160.125 237.417969 158.472656 237.503906 C 158.210938 237.515625 157.925781 237.554688 157.660156 237.613281 C 157.675781 237.621094 157.6875 237.628906 157.703125 237.636719 C 157.855469 237.691406 158.003906 237.746094 158.171875 237.808594 Z M 195.269531 224.855469 C 194.667969 224.84375 194.09375 224.832031 193.527344 224.832031 C 193.550781 225.730469 193.171875 226.554688 192.40625 227.269531 C 191.832031 227.800781 191.152344 228.195312 190.609375 228.511719 C 190.398438 228.632812 190.195312 228.785156 189.992188 228.949219 C 190.035156 229.015625 190.085938 229.078125 190.140625 229.140625 C 190.609375 229.632812 191.324219 229.707031 191.710938 229.707031 C 191.78125 229.707031 191.84375 229.707031 191.894531 229.699219 C 192.160156 229.683594 192.398438 229.640625 192.582031 229.601562 L 193.03125 229.503906 L 193.242188 230.003906 C 193.28125 230.089844 193.316406 230.171875 193.347656 230.261719 C 193.425781 230.472656 193.484375 230.675781 193.523438 230.875 C 193.683594 230.867188 193.84375 230.859375 194.003906 230.859375 C 194.695312 230.859375 195.445312 230.941406 196.273438 231.109375 C 196.296875 230.988281 196.324219 230.871094 196.363281 230.753906 C 195.703125 230.675781 195.171875 230.5 194.722656 230.214844 L 193.753906 229.601562 L 194.839844 229.222656 C 195.289062 229.066406 195.597656 228.644531 195.597656 228.179688 C 195.597656 227.597656 195.15625 227.117188 194.566406 227.070312 L 193.628906 226.992188 L 194.148438 226.207031 C 194.410156 225.816406 194.761719 225.386719 195.269531 224.855469 Z M 133.871094 159.390625 C 133.847656 159.285156 133.8125 159.175781 133.796875 159.121094 C 133.648438 158.585938 133.492188 158.039062 133.253906 157.6875 C 133.117188 157.5 132.96875 157.417969 132.929688 157.410156 C 132.828125 157.421875 132.5 157.609375 132.328125 157.710938 C 131.234375 158.332031 130.082031 158.9375 128.972656 159.519531 C 126.820312 160.648438 124.59375 161.8125 122.699219 163.160156 L 122.632812 163.207031 C 122.34375 163.410156 121.953125 163.6875 121.894531 163.792969 C 121.894531 163.792969 121.859375 163.875 121.871094 164.132812 C 121.894531 164.582031 122.078125 164.898438 122.242188 165.003906 C 122.28125 165.03125 122.339844 165.0625 122.519531 164.992188 C 126.417969 163.445312 130.445312 161.851562 133.835938 159.414062 C 133.839844 159.410156 133.851562 159.398438 133.871094 159.390625 Z M 144.800781 193.640625 C 141.609375 188.164062 138.304688 182.496094 134.601562 177.222656 C 133.164062 175.175781 131.789062 172.988281 130.464844 170.875 C 129.554688 169.425781 128.632812 167.960938 127.671875 166.507812 C 129.425781 165.757812 131.171875 164.949219 132.851562 164 C 133.089844 164.375 133.324219 164.757812 133.558594 165.160156 C 136.398438 170.113281 139.652344 175.160156 142.796875 180.03125 C 146.746094 186.148438 150.828125 192.476562 154.144531 198.714844 C 156.042969 202.277344 158.128906 205.796875 160.140625 209.199219 C 163.554688 214.964844 167.085938 220.929688 169.726562 227.179688 C 169.949219 227.703125 170.109375 228.257812 170.1875 228.777344 C 170.492188 230.769531 169.574219 231.191406 169.273438 231.332031 C 168.429688 231.71875 166.746094 231.957031 166.261719 231.757812 C 165.933594 231.429688 165.609375 230.648438 165.351562 230.015625 C 165.1875 229.628906 165.027344 229.226562 164.839844 228.863281 C 164.199219 227.601562 163.554688 226.34375 162.898438 225.085938 C 161.570312 222.546875 160.191406 219.976562 158.800781 217.457031 C 156.019531 212.421875 153.078125 207.390625 150.066406 202.5 C 148.269531 199.597656 146.507812 196.566406 144.800781 193.640625 Z M 152.21875 204.972656 C 152.875 206.125 153.519531 207.261719 154.144531 208.382812 C 154.242188 208.546875 154.367188 208.6875 154.503906 208.808594 C 153.746094 207.527344 152.984375 206.246094 152.21875 204.972656 Z M 131.472656 171.4375 C 131.429688 171.371094 131.390625 171.300781 131.34375 171.230469 C 131.355469 171.246094 131.363281 171.265625 131.371094 171.28125 C 131.40625 171.335938 131.441406 171.386719 131.472656 171.4375 Z M 142.835938 189.183594 C 140.445312 185.132812 137.957031 181.066406 135.253906 177.191406 C 137.824219 181.152344 140.367188 185.171875 142.835938 189.183594 Z M 123.40625 158.742188 C 123.25 158.660156 123.101562 158.554688 122.972656 158.421875 C 122.960938 158.40625 122.945312 158.394531 122.933594 158.375 C 123.042969 158.308594 123.128906 158.265625 123.128906 158.265625 C 123.9375 157.789062 124.777344 157.320312 125.613281 156.878906 C 125.675781 156.84375 125.734375 156.8125 125.796875 156.785156 C 125.855469 156.972656 125.886719 157.171875 125.875 157.371094 C 126.386719 157.101562 126.902344 156.828125 127.410156 156.5625 C 127.542969 156.488281 127.671875 156.421875 127.796875 156.355469 L 112.242188 132.523438 C 111.75 131.769531 111.339844 131.046875 110.945312 130.347656 C 110.09375 128.84375 109.398438 127.617188 108.230469 126.648438 C 105.136719 127.5625 102.484375 129.964844 100.121094 132.101562 C 98.8125 133.289062 98.152344 134.15625 98.167969 134.6875 C 98.179688 135.054688 98.574219 135.582031 99.285156 136.164062 C 101.410156 137.910156 103.335938 139.949219 105.191406 141.933594 C 106.007812 142.796875 106.847656 143.695312 107.675781 144.535156 C 109.160156 146.035156 110.652344 147.527344 112.140625 149.023438 C 115.058594 151.957031 118.074219 154.984375 121.019531 157.992188 C 121.464844 158.449219 121.898438 158.921875 122.320312 159.390625 C 122.675781 159.164062 123.042969 158.953125 123.40625 158.742188 Z M 224.667969 231.964844 C 222.566406 227.351562 220.554688 224.339844 218.148438 222.183594 C 216.007812 220.277344 213.449219 218.984375 210.324219 218.226562 C 205.214844 216.992188 199.84375 216.734375 194.5 216.734375 C 192.617188 216.734375 190.730469 216.769531 188.863281 216.796875 L 188.566406 216.800781 C 182.574219 216.902344 176.371094 217.746094 169.71875 219.34375 C 170.421875 220.699219 171.097656 222.0625 171.738281 223.449219 C 181.585938 220.730469 191.832031 220.742188 199.335938 221.082031 C 200.410156 221.128906 201.484375 221.226562 202.519531 221.351562 C 202.59375 221.351562 202.671875 221.347656 202.746094 221.351562 C 203.183594 221.375 203.609375 221.453125 204.007812 221.570312 C 204.824219 221.703125 205.605469 221.863281 206.328125 222.046875 C 212.304688 223.542969 213.414062 226.230469 213.296875 228.222656 C 213.144531 230.886719 210.578125 233.273438 205.246094 235.734375 C 203.625 236.480469 201.945312 237.175781 200.226562 237.824219 C 200.148438 237.851562 200.070312 237.878906 199.992188 237.914062 C 193.203125 240.449219 185.726562 242.214844 178.054688 243.058594 C 176.109375 243.273438 173.582031 243.46875 170.835938 243.46875 C 170.121094 243.46875 169.390625 243.453125 168.652344 243.425781 C 168.558594 243.425781 168.457031 243.4375 168.367188 243.4375 C 167.71875 243.4375 167.140625 243.386719 166.617188 243.304688 C 163.003906 243.003906 159.332031 242.253906 156.320312 240.710938 C 155.660156 240.476562 154.914062 240.195312 154.3125 239.71875 C 153.828125 239.335938 153.507812 238.867188 153.347656 238.367188 C 152.71875 237.46875 152.5625 236.605469 152.589844 235.914062 C 152.605469 235.425781 152.71875 234.945312 152.910156 234.460938 C 153.195312 232.160156 156.210938 230.375 157.867188 229.566406 C 158.679688 229.050781 159.585938 228.523438 160.601562 227.972656 C 160.375 227.535156 160.152344 227.089844 159.921875 226.652344 C 159.304688 225.464844 158.671875 224.273438 158.03125 223.085938 C 154.234375 224.722656 150.921875 226.675781 148.140625 228.933594 C 143.59375 232.625 142.5 242.320312 141.96875 246.976562 C 141.886719 247.703125 141.824219 248.410156 141.976562 248.96875 C 142.160156 249.675781 142.738281 250.378906 143.316406 251.039062 C 151.890625 260.847656 163.988281 263.128906 172.621094 263.304688 C 189.484375 263.664062 218.734375 260.902344 225.21875 238.445312 C 225.519531 237.414062 225.785156 236.320312 225.71875 235.320312 C 225.648438 234.195312 225.15625 233.046875 224.667969 231.964844 Z M 224.667969 231.964844 " fill-opacity="1" fill-rule="nonzero"/><path fill="#f6f6f6" d="M 186.996094 226.382812 C 186.878906 226.480469 186.765625 226.582031 186.636719 226.6875 C 186.910156 226.359375 187.121094 226.035156 187.3125 225.75 C 187.433594 225.558594 187.554688 225.371094 187.699219 225.1875 C 187.96875 224.847656 188.496094 224.488281 189.023438 224.484375 C 189.03125 224.484375 189.03125 224.484375 189.035156 224.484375 C 189.285156 224.484375 189.402344 224.570312 189.402344 224.570312 C 189.417969 224.589844 189.441406 224.617188 189.464844 224.65625 C 189.21875 224.816406 188.886719 225.011719 188.652344 225.144531 C 187.96875 225.53125 187.449219 225.980469 186.996094 226.382812 Z M 179.105469 239 C 179.238281 238.550781 179.445312 238.226562 179.53125 238.082031 C 179.675781 237.847656 179.820312 237.5625 179.960938 237.28125 C 179.765625 237.238281 179.589844 237.191406 179.417969 237.152344 C 179.253906 237.113281 179.082031 237.070312 178.945312 237.042969 C 178.972656 237.148438 178.988281 237.253906 179.003906 237.363281 C 179.082031 237.917969 179.015625 238.472656 178.804688 239.039062 C 178.90625 239.023438 179.003906 239.011719 179.105469 239 Z M 188.074219 231.585938 C 188.589844 231.535156 189.125 231.46875 189.523438 231.316406 C 189.535156 231.308594 189.539062 231.308594 189.550781 231.304688 C 189.320312 230.847656 189.035156 230.769531 188.914062 230.738281 C 188.644531 230.660156 188.230469 230.648438 187.863281 230.636719 C 187.4375 230.625 186.960938 230.609375 186.550781 230.660156 C 185.886719 230.742188 185.421875 230.9375 185.148438 231.09375 C 185.316406 231.257812 185.472656 231.390625 185.636719 231.46875 C 186.261719 231.765625 187.527344 231.636719 188.074219 231.585938 Z M 175.839844 232.269531 C 176.441406 232.417969 177.136719 232.453125 177.875 232.492188 C 177.914062 232.492188 177.953125 232.496094 178 232.496094 C 178.152344 232.746094 178.371094 232.953125 178.632812 233.097656 C 178.820312 233.195312 179.03125 233.261719 179.261719 233.285156 C 179.3125 233.289062 179.367188 233.289062 179.417969 233.289062 C 179.550781 233.289062 179.683594 233.269531 179.804688 233.242188 C 180.128906 233.164062 180.417969 232.992188 180.640625 232.753906 C 180.878906 232.492188 181.046875 232.160156 181.085938 231.777344 L 181.128906 231.28125 C 181.152344 231.027344 181.113281 230.78125 181.035156 230.554688 C 180.96875 230.367188 180.863281 230.199219 180.738281 230.050781 C 180.851562 229.925781 180.957031 229.8125 181.050781 229.6875 C 180.828125 229.699219 180.613281 229.714844 180.394531 229.734375 C 180.171875 229.582031 179.910156 229.484375 179.628906 229.457031 C 178.90625 229.390625 178.238281 229.804688 177.949219 230.4375 C 177.171875 230.882812 176.464844 231.519531 175.734375 232.242188 C 175.761719 232.253906 175.800781 232.265625 175.839844 232.269531 Z M 171.582031 233.835938 C 171.464844 233.917969 171.347656 234 171.222656 234.074219 C 171.371094 234.039062 171.519531 234.019531 171.664062 233.996094 C 171.636719 233.945312 171.617188 233.890625 171.582031 233.835938 Z M 175.953125 226.4375 C 175.214844 226.597656 174.484375 226.765625 173.773438 226.945312 C 173.855469 227.230469 173.921875 227.507812 173.972656 227.785156 C 174.523438 227.328125 175.183594 226.851562 175.953125 226.4375 Z M 186.578125 237.257812 C 185.871094 237.335938 185.25 237.554688 184.871094 237.847656 C 185.605469 237.691406 186.300781 237.488281 186.933594 237.230469 C 186.816406 237.238281 186.695312 237.246094 186.578125 237.257812 Z M 203.179688 231.726562 C 203.351562 231.746094 203.53125 231.765625 203.703125 231.777344 C 203.785156 231.78125 203.878906 231.785156 203.957031 231.785156 C 203.917969 231.671875 203.828125 231.527344 203.71875 231.503906 C 203.609375 231.488281 203.496094 231.476562 203.378906 231.476562 C 203.074219 231.476562 202.769531 231.535156 202.5 231.648438 C 202.734375 231.671875 202.960938 231.699219 203.179688 231.726562 Z M 202.628906 225.480469 C 202.808594 225.441406 202.960938 225.410156 203.089844 225.375 C 203.085938 225.375 203.078125 225.371094 203.074219 225.371094 C 202.8125 225.332031 202.550781 225.292969 202.285156 225.261719 C 201.957031 225.277344 201.574219 225.335938 201.179688 225.398438 C 201.15625 225.402344 201.121094 225.410156 201.089844 225.414062 C 200.945312 225.558594 200.773438 225.726562 200.566406 225.921875 C 201.09375 225.820312 201.671875 225.699219 202.289062 225.566406 Z M 193.734375 234.773438 C 193.28125 234.800781 193.019531 234.921875 192.882812 235.035156 C 193.175781 235.226562 193.644531 235.464844 193.878906 235.582031 C 194.109375 235.699219 194.179688 235.726562 194.273438 235.726562 C 194.429688 235.734375 194.6875 235.6875 194.851562 235.660156 C 195.523438 235.550781 196.195312 235.417969 196.859375 235.277344 C 195.8125 234.972656 194.640625 234.710938 193.734375 234.773438 Z M 209.402344 227.992188 C 209.414062 227.761719 209.0625 227.21875 207.738281 226.621094 C 207.683594 227.035156 207.527344 227.539062 207.160156 228.035156 C 207.082031 228.140625 206.992188 228.246094 206.898438 228.34375 C 207.308594 228.738281 207.65625 229.207031 207.910156 229.722656 C 209.339844 228.625 209.402344 227.996094 209.402344 227.992188 Z M 161.183594 232.203125 C 161.113281 232.160156 161 232.097656 160.847656 232.046875 C 160.722656 232.003906 160.742188 232.019531 160.742188 232.019531 C 160.691406 232.019531 160.546875 232.035156 160.164062 232.191406 C 159.941406 232.28125 159.71875 232.375 159.507812 232.476562 C 158.5625 233.078125 157.867188 233.601562 157.347656 234.050781 C 158.214844 233.921875 159.226562 233.652344 159.902344 233.257812 C 160.671875 232.808594 161.039062 232.417969 161.183594 232.203125 Z M 162.859375 238.980469 L 162.410156 238.722656 C 161.183594 238.023438 160.125 237.417969 158.472656 237.503906 C 158.210938 237.515625 157.925781 237.554688 157.660156 237.613281 C 157.675781 237.621094 157.6875 237.628906 157.703125 237.636719 C 157.847656 237.6875 158 237.742188 158.167969 237.804688 C 159.289062 238.214844 161.414062 238.984375 162.875 238.984375 C 162.875 238.992188 162.871094 238.984375 162.859375 238.980469 Z M 167.007812 238.675781 C 167.167969 238.730469 167.339844 238.761719 167.523438 238.761719 C 167.574219 238.761719 167.617188 238.761719 167.667969 238.757812 C 167.683594 238.757812 167.695312 238.757812 167.710938 238.757812 C 168.261719 238.714844 168.832031 238.71875 169.429688 238.722656 C 170.359375 238.734375 171.320312 238.734375 172.316406 238.5625 C 172.484375 238.535156 172.648438 238.511719 172.820312 238.472656 C 172.921875 238.453125 173.015625 238.425781 173.109375 238.398438 C 173.144531 238.417969 173.183594 238.441406 173.222656 238.464844 C 173.371094 238.550781 173.515625 238.640625 173.652344 238.71875 C 173.652344 238.71875 174.066406 238.226562 174.152344 238.125 L 174.054688 238.074219 C 174.285156 237.984375 174.5 237.886719 174.707031 237.792969 C 175.007812 237.648438 175.289062 237.503906 175.550781 237.359375 C 176.363281 236.914062 176.660156 235.894531 176.207031 235.089844 C 176.101562 234.898438 175.964844 234.738281 175.808594 234.613281 C 175.503906 234.355469 175.117188 234.230469 174.722656 234.234375 C 174.457031 234.234375 174.183594 234.296875 173.933594 234.433594 C 173.363281 234.75 172.746094 235.0625 172.054688 235.222656 C 171.269531 235.40625 170.390625 235.398438 169.46875 235.386719 C 169.148438 235.382812 168.824219 235.382812 168.492188 235.386719 C 168.128906 235.394531 167.761719 235.40625 167.382812 235.4375 C 167.355469 235.4375 167.328125 235.449219 167.300781 235.457031 C 167.027344 235.492188 166.777344 235.59375 166.566406 235.742188 C 166.472656 235.738281 166.371094 235.734375 166.285156 235.726562 C 166.332031 235.773438 166.382812 235.816406 166.4375 235.859375 C 166.300781 235.984375 166.171875 236.121094 166.078125 236.28125 C 165.960938 236.488281 165.890625 236.714844 165.867188 236.960938 C 165.855469 237.054688 165.855469 237.152344 165.859375 237.246094 C 165.910156 237.917969 166.382812 238.46875 167.007812 238.675781 Z M 189.328125 243.507812 C 187.34375 243.980469 185.308594 244.328125 183.273438 244.546875 C 182.359375 244.644531 181.691406 245.46875 181.785156 246.382812 C 181.875 247.242188 182.601562 247.882812 183.445312 247.882812 C 183.507812 247.882812 183.5625 247.875 183.625 247.871094 C 185.800781 247.644531 187.980469 247.265625 190.101562 246.761719 C 191.003906 246.542969 191.558594 245.644531 191.34375 244.746094 C 191.132812 243.847656 190.230469 243.296875 189.328125 243.507812 Z M 104.183594 134.296875 C 103.683594 133.519531 102.644531 133.296875 101.867188 133.800781 C 101.085938 134.300781 100.867188 135.339844 101.371094 136.117188 C 102 137.085938 102.761719 137.96875 103.632812 138.742188 C 103.953125 139.023438 104.347656 139.15625 104.742188 139.15625 C 105.203125 139.15625 105.664062 138.96875 105.996094 138.589844 C 106.609375 137.898438 106.542969 136.84375 105.851562 136.230469 C 105.214844 135.660156 104.652344 135.011719 104.183594 134.296875 Z M 193.242188 230.015625 C 193.277344 230.097656 193.316406 230.175781 193.34375 230.261719 C 193.421875 230.472656 193.476562 230.675781 193.515625 230.875 C 193.675781 230.867188 193.839844 230.859375 194 230.859375 C 194.6875 230.859375 195.441406 230.941406 196.269531 231.109375 C 196.289062 230.988281 196.320312 230.871094 196.359375 230.753906 C 195.695312 230.675781 195.167969 230.5 194.71875 230.214844 L 194.160156 229.859375 C 194.261719 229.855469 194.355469 229.84375 194.449219 229.84375 C 194.457031 229.84375 194.460938 229.84375 194.46875 229.84375 C 194.660156 229.84375 194.839844 229.804688 195.011719 229.746094 C 195.667969 229.515625 196.140625 228.90625 196.140625 228.171875 C 196.140625 227.296875 195.460938 226.582031 194.601562 226.507812 C 194.554688 226.503906 194.511719 226.496094 194.46875 226.496094 C 194.285156 226.496094 194.101562 226.515625 193.921875 226.523438 L 194.140625 226.203125 C 194.398438 225.808594 194.757812 225.382812 195.261719 224.847656 C 194.660156 224.839844 194.089844 224.828125 193.523438 224.828125 C 193.539062 225.480469 193.339844 226.09375 192.9375 226.652344 C 192.90625 226.660156 192.871094 226.664062 192.84375 226.667969 C 192.683594 226.703125 192.527344 226.742188 192.371094 226.78125 C 192.25 226.808594 192.136719 226.835938 192.019531 226.859375 C 191.503906 227.339844 190.859375 227.71875 190.324219 228.023438 C 189.957031 228.234375 189.648438 228.5 189.300781 228.796875 C 189.390625 229.054688 189.535156 229.304688 189.730469 229.511719 C 190.332031 230.144531 191.199219 230.25 191.703125 230.25 C 191.789062 230.25 191.859375 230.242188 191.921875 230.242188 C 192.199219 230.226562 192.449219 230.183594 192.6875 230.132812 C 192.855469 230.097656 193.019531 230.0625 193.175781 230.023438 C 193.203125 230.027344 193.226562 230.023438 193.242188 230.015625 Z M 221.773438 236.710938 C 221.234375 235.960938 220.183594 235.789062 219.429688 236.332031 C 218.269531 237.164062 217.25 238.246094 216.484375 239.453125 L 216.316406 239.71875 C 216.183594 239.933594 216.046875 240.160156 215.929688 240.300781 C 215.5 240.144531 215.023438 240.171875 214.605469 240.382812 C 214.054688 240.660156 213.703125 241.214844 213.6875 241.828125 C 213.683594 242.078125 213.65625 242.324219 213.617188 242.570312 L 213.183594 242.203125 C 212.675781 241.777344 211.96875 241.683594 211.375 241.972656 C 210.78125 242.253906 210.40625 242.863281 210.425781 243.519531 C 210.453125 244.628906 210.445312 245.527344 210.085938 246.128906 C 209.921875 246.398438 209.558594 246.5625 209.480469 246.566406 L 209.390625 246.496094 C 209.089844 246.246094 208.378906 245.65625 207.371094 245.828125 C 206.539062 245.96875 206.058594 246.550781 205.882812 246.765625 C 205.699219 246.988281 205.519531 247.222656 205.335938 247.460938 C 205.109375 247.753906 204.886719 248.046875 204.664062 248.304688 C 204.359375 247.9375 203.898438 247.703125 203.386719 247.703125 C 203.386719 247.703125 203.378906 247.703125 203.378906 247.703125 C 202.457031 247.703125 201.707031 248.449219 201.707031 249.367188 C 201.707031 250.128906 201.867188 250.894531 202.183594 251.582031 C 202.460938 252.1875 203.0625 252.566406 203.707031 252.566406 C 203.808594 252.566406 203.914062 252.554688 204.019531 252.539062 C 205.914062 252.183594 207.050781 250.730469 207.964844 249.542969 C 208.621094 249.867188 209.390625 249.96875 210.167969 249.8125 C 211.324219 249.585938 212.375 248.847656 212.976562 247.832031 C 213.203125 247.449219 213.371094 247.050781 213.492188 246.648438 C 213.769531 246.75 214.105469 246.816406 214.484375 246.761719 C 215.015625 246.6875 215.75 246.390625 216.234375 245.363281 C 216.5 244.796875 216.703125 244.195312 216.839844 243.582031 C 217.246094 243.457031 217.636719 243.253906 217.984375 242.964844 C 218.558594 242.492188 218.910156 241.921875 219.191406 241.464844 L 219.332031 241.238281 C 219.871094 240.390625 220.585938 239.628906 221.40625 239.039062 C 222.144531 238.507812 222.316406 237.457031 221.773438 236.710938 Z M 209.917969 236.402344 C 209.367188 235.660156 208.316406 235.503906 207.570312 236.054688 C 204.339844 238.441406 200.761719 240.261719 196.929688 241.472656 C 196.046875 241.75 195.558594 242.6875 195.835938 243.570312 C 196.0625 244.285156 196.71875 244.742188 197.429688 244.742188 C 197.597656 244.742188 197.769531 244.710938 197.9375 244.664062 C 202.125 243.339844 206.039062 241.355469 209.5625 238.746094 C 210.308594 238.195312 210.46875 237.148438 209.917969 236.402344 Z M 110.390625 141.144531 C 109.710938 140.515625 108.648438 140.554688 108.019531 141.234375 C 107.394531 141.910156 107.433594 142.96875 108.109375 143.597656 C 113.21875 148.335938 118.222656 153.324219 122.976562 158.421875 C 123.105469 158.558594 123.253906 158.660156 123.410156 158.742188 C 124.222656 158.265625 125.046875 157.804688 125.875 157.367188 C 125.894531 156.929688 125.75 156.484375 125.429688 156.140625 C 120.621094 150.984375 115.558594 145.9375 110.390625 141.144531 Z M 154.625 250.625 C 153.710938 250.417969 152.855469 250.050781 152.15625 249.558594 C 151.398438 249.023438 150.355469 249.207031 149.820312 249.96875 C 149.285156 250.722656 149.46875 251.765625 150.230469 252.300781 C 151.289062 253.042969 152.554688 253.59375 153.890625 253.890625 C 154.011719 253.921875 154.140625 253.929688 154.261719 253.929688 C 155.03125 253.929688 155.71875 253.402344 155.898438 252.625 C 156.09375 251.722656 155.523438 250.828125 154.625 250.625 Z M 179.273438 254.621094 C 178.894531 254.664062 178.316406 254.601562 177.757812 254.542969 C 176.464844 254.402344 174.886719 254.230469 173.554688 255.03125 C 173.449219 254.375 173.265625 253.539062 172.628906 252.804688 C 172.144531 252.25 171.355469 252.078125 170.679688 252.371094 C 169.808594 252.761719 169.28125 253.394531 168.914062 254.015625 L 168.886719 253.886719 C 168.519531 252.265625 167.300781 251.996094 166.933594 251.945312 C 165.871094 251.8125 165.136719 252.460938 164.828125 252.738281 C 164.554688 252.976562 164.269531 252.964844 163.132812 252.65625 C 162.851562 252.582031 162.574219 252.503906 162.292969 252.445312 C 161.386719 252.242188 160.496094 252.816406 160.296875 253.71875 C 160.09375 254.625 160.667969 255.511719 161.574219 255.710938 C 161.800781 255.761719 162.03125 255.824219 162.257812 255.886719 C 163.226562 256.144531 164.578125 256.511719 165.921875 255.957031 L 166.34375 257.828125 C 166.515625 258.59375 167.195312 259.132812 167.980469 259.132812 C 167.992188 259.132812 168 259.132812 168.011719 259.132812 C 169.089844 259.109375 170.085938 258.546875 170.816406 257.578125 C 170.859375 257.660156 170.914062 257.75 170.972656 257.832031 C 171.453125 258.570312 172.199219 259.003906 173.015625 259.019531 C 174.0625 259.054688 174.730469 258.410156 175.085938 258.066406 C 175.136719 258.023438 175.179688 257.972656 175.230469 257.925781 C 175.550781 257.65625 176.621094 257.773438 177.402344 257.855469 C 178.148438 257.933594 178.914062 258.015625 179.667969 257.933594 C 180.582031 257.828125 181.246094 256.996094 181.132812 256.078125 C 181.023438 255.167969 180.183594 254.507812 179.273438 254.621094 Z M 134.164062 169.433594 C 133.652344 168.660156 132.613281 168.457031 131.839844 168.964844 C 131.066406 169.476562 130.863281 170.515625 131.371094 171.285156 C 139.480469 183.457031 147.570312 196.632812 154.144531 208.386719 C 154.453125 208.9375 155.023438 209.242188 155.609375 209.242188 C 155.886719 209.242188 156.164062 209.175781 156.425781 209.03125 C 157.230469 208.582031 157.519531 207.5625 157.070312 206.757812 C 150.453125 194.929688 142.320312 181.675781 134.164062 169.433594 Z M 134.164062 169.433594 " fill-opacity="1" fill-rule="nonzero"/><path fill="#f4c524" d="M 202.40625 226.097656 C 200.84375 226.441406 199.699219 226.648438 198.863281 226.765625 C 199.269531 226.363281 199.664062 225.996094 199.90625 225.777344 C 200.316406 225.386719 200.617188 225.105469 200.8125 224.898438 C 200.8125 224.898438 200.816406 224.894531 200.816406 224.894531 C 200.898438 224.875 201.023438 224.855469 201.101562 224.84375 C 201.515625 224.777344 201.945312 224.710938 202.316406 224.699219 C 202.628906 224.738281 202.941406 224.78125 203.242188 224.832031 C 203.441406 224.914062 203.574219 225.011719 203.617188 225.078125 C 203.71875 225.210938 203.769531 225.433594 203.8125 225.75 C 203.609375 225.820312 203.273438 225.914062 202.75 226.027344 Z M 181.628906 233.5 C 181.210938 233.386719 180.863281 233.113281 180.640625 232.746094 C 180.417969 232.984375 180.132812 233.15625 179.804688 233.234375 C 180 233.273438 180.1875 233.324219 180.378906 233.367188 C 180.726562 233.457031 181.167969 233.558594 181.355469 233.546875 C 181.460938 233.539062 181.558594 233.523438 181.628906 233.5 Z M 182.035156 229.101562 C 181.800781 229.09375 181.519531 229.105469 181.367188 229.117188 C 180.578125 229.15625 179.761719 229.199219 179.042969 229.382812 C 177.429688 229.800781 176.226562 230.9375 174.929688 232.265625 C 174.878906 232.3125 174.8125 232.378906 174.75 232.445312 C 174.933594 232.558594 175.222656 232.6875 175.703125 232.808594 C 176.359375 232.972656 177.082031 233.007812 177.84375 233.046875 C 178.097656 233.058594 178.367188 233.078125 178.625 233.097656 C 178.046875 232.792969 177.675781 232.160156 177.742188 231.464844 L 177.792969 230.960938 C 177.882812 230.039062 178.710938 229.371094 179.617188 229.449219 C 180.285156 229.511719 180.816406 229.960938 181.027344 230.550781 C 181.445312 230.117188 181.773438 229.65625 182 229.179688 C 182.011719 229.148438 182.023438 229.121094 182.035156 229.101562 Z M 173.496094 228.277344 C 173.527344 228.488281 173.550781 228.691406 173.5625 228.894531 C 174.703125 227.820312 176.21875 226.652344 178.199219 226.140625 C 179.25 225.871094 180.324219 225.816406 181.191406 225.769531 C 181.402344 225.757812 181.632812 225.75 181.878906 225.75 C 181.992188 225.660156 182.105469 225.578125 182.242188 225.515625 C 182.242188 225.515625 182.246094 225.515625 182.246094 225.515625 C 182.464844 225.414062 182.679688 225.328125 182.890625 225.238281 C 183.324219 225.058594 183.703125 224.90625 183.886719 224.722656 C 183.902344 224.703125 183.914062 224.6875 183.929688 224.671875 C 180.355469 225.003906 176.675781 225.59375 173.0625 226.558594 C 173.261719 227.128906 173.410156 227.714844 173.496094 228.277344 Z M 202.085938 231.238281 C 201.621094 231.480469 201.160156 231.648438 200.753906 231.796875 C 200.605469 231.851562 200.417969 231.917969 200.25 231.988281 C 200.292969 232.023438 200.359375 232.0625 200.4375 232.097656 C 200.6875 232.199219 200.984375 232.226562 201.484375 232.191406 C 201.613281 232.1875 201.734375 232.179688 201.855469 232.179688 C 202.300781 232.179688 202.707031 232.226562 203.078125 232.269531 C 203.273438 232.292969 203.472656 232.3125 203.667969 232.332031 C 203.824219 232.339844 203.996094 232.347656 204.109375 232.335938 C 204.347656 232.304688 204.519531 232.0625 204.535156 231.964844 C 204.574219 231.660156 204.332031 231.042969 203.8125 230.960938 C 203.242188 230.867188 202.59375 230.964844 202.085938 231.238281 Z M 207.195312 225.796875 C 207.238281 226.199219 207.273438 226.964844 206.722656 227.703125 C 206.53125 227.957031 206.296875 228.167969 206.042969 228.34375 C 206.832031 228.902344 207.386719 229.714844 207.675781 230.582031 C 209.75 229.15625 209.953125 228.238281 209.960938 228.019531 C 210 227.257812 208.972656 226.453125 207.195312 225.796875 Z M 194.472656 229.851562 C 194.46875 229.851562 194.460938 229.851562 194.457031 229.851562 C 194.160156 229.851562 193.84375 229.882812 193.542969 229.945312 C 193.421875 229.972656 193.304688 230 193.183594 230.027344 C 193.03125 230.066406 192.867188 230.105469 192.695312 230.136719 C 192.738281 230.238281 192.78125 230.339844 192.820312 230.445312 C 192.921875 230.726562 193.015625 231.082031 193.027344 231.488281 C 193.183594 231.464844 193.34375 231.441406 193.503906 231.429688 C 194.5625 231.359375 195.703125 231.53125 196.769531 231.785156 C 196.757812 231.160156 196.929688 230.65625 197.207031 230.242188 C 196.222656 230.238281 195.535156 230.070312 195.015625 229.746094 C 194.84375 229.8125 194.667969 229.851562 194.472656 229.851562 Z M 192.882812 235.035156 C 193.175781 235.226562 193.644531 235.464844 193.878906 235.582031 C 194.109375 235.699219 194.179688 235.726562 194.273438 235.726562 C 194.429688 235.734375 194.6875 235.6875 194.851562 235.660156 C 195.523438 235.550781 196.195312 235.417969 196.859375 235.277344 C 195.808594 234.972656 194.632812 234.710938 193.734375 234.773438 C 193.28125 234.804688 193.019531 234.921875 192.882812 235.035156 Z M 174.707031 237.78125 C 174.152344 238.046875 173.527344 238.296875 172.820312 238.464844 C 172.648438 238.503906 172.484375 238.523438 172.316406 238.550781 C 172.527344 238.679688 172.738281 238.808594 172.933594 238.925781 C 173.1875 239.078125 173.429688 239.21875 173.628906 239.347656 C 173.667969 239.367188 173.695312 239.390625 173.722656 239.402344 C 173.765625 239.367188 173.878906 239.289062 174.007812 239.136719 L 174.339844 238.742188 C 174.546875 238.503906 174.816406 238.179688 174.992188 237.9375 C 174.984375 237.9375 174.984375 237.929688 174.980469 237.929688 C 174.902344 237.886719 174.808594 237.835938 174.707031 237.78125 Z M 188.652344 225.136719 C 188.886719 225.003906 189.21875 224.808594 189.464844 224.648438 C 189.441406 224.609375 189.417969 224.582031 189.402344 224.566406 C 189.402344 224.566406 189.28125 224.476562 189.035156 224.476562 C 189.03125 224.476562 189.03125 224.476562 189.023438 224.476562 C 188.496094 224.484375 187.96875 224.847656 187.699219 225.183594 C 187.554688 225.367188 187.433594 225.554688 187.3125 225.742188 C 187.117188 226.035156 186.910156 226.351562 186.636719 226.679688 C 186.765625 226.574219 186.882812 226.476562 186.996094 226.375 C 187.449219 225.980469 187.96875 225.53125 188.652344 225.136719 Z M 192.375 226.785156 C 192.53125 226.746094 192.695312 226.707031 192.847656 226.675781 C 193.386719 226.5625 193.933594 226.503906 194.476562 226.507812 C 194.523438 226.507812 194.566406 226.519531 194.613281 226.519531 C 195.007812 225.925781 195.640625 225.238281 196.570312 224.332031 C 195.390625 224.300781 194.167969 224.277344 192.898438 224.277344 C 193.160156 225.410156 192.703125 226.238281 192.027344 226.871094 C 192.136719 226.839844 192.253906 226.8125 192.375 226.785156 Z M 179.5625 239.5 C 179.640625 238.972656 179.890625 238.5625 180.003906 238.367188 C 180.167969 238.113281 180.316406 237.808594 180.476562 237.488281 C 180.566406 237.308594 180.65625 237.125 180.75 236.949219 C 180.765625 236.921875 180.785156 236.894531 180.796875 236.863281 C 180.363281 236.816406 179.949219 236.714844 179.566406 236.621094 C 179.28125 236.546875 178.992188 236.476562 178.800781 236.460938 C 178.558594 236.4375 178.320312 236.425781 178.082031 236.414062 C 178.269531 236.738281 178.398438 237.082031 178.449219 237.441406 C 178.570312 238.300781 178.265625 239.046875 177.824219 239.710938 C 178.410156 239.644531 178.984375 239.578125 179.5625 239.5 Z M 183.71875 238.503906 C 183.703125 238.539062 183.679688 238.574219 183.664062 238.613281 C 185.753906 238.359375 187.632812 237.714844 189.011719 236.769531 C 188.441406 236.710938 187.894531 236.664062 187.371094 236.664062 C 187.082031 236.664062 186.804688 236.675781 186.523438 236.710938 C 185.625 236.808594 184.855469 237.105469 184.402344 237.519531 C 184.113281 237.78125 183.898438 238.164062 183.71875 238.503906 Z M 188.074219 231.585938 C 188.589844 231.535156 189.125 231.46875 189.523438 231.316406 C 189.535156 231.308594 189.539062 231.308594 189.550781 231.304688 C 189.320312 230.847656 189.035156 230.769531 188.914062 230.738281 C 188.644531 230.660156 188.230469 230.648438 187.863281 230.636719 C 187.4375 230.625 186.960938 230.609375 186.550781 230.660156 C 185.886719 230.742188 185.421875 230.9375 185.148438 231.09375 C 185.316406 231.257812 185.472656 231.390625 185.636719 231.46875 C 186.261719 231.765625 187.527344 231.636719 188.074219 231.585938 Z M 162.414062 238.730469 C 161.191406 238.03125 160.128906 237.425781 158.476562 237.507812 C 158.214844 237.519531 157.933594 237.558594 157.664062 237.621094 C 157.683594 237.625 157.695312 237.636719 157.710938 237.640625 C 157.855469 237.691406 158.003906 237.746094 158.171875 237.808594 C 159.292969 238.21875 161.417969 238.992188 162.882812 238.992188 C 162.875 238.984375 162.863281 238.984375 162.859375 238.980469 Z M 161.183594 232.203125 C 161.113281 232.160156 161 232.097656 160.847656 232.046875 C 160.722656 232.003906 160.742188 232.019531 160.742188 232.019531 C 160.691406 232.019531 160.546875 232.035156 160.164062 232.191406 C 159.941406 232.28125 159.71875 232.375 159.507812 232.476562 C 158.5625 233.078125 157.867188 233.601562 157.347656 234.050781 C 158.214844 233.921875 159.226562 233.652344 159.902344 233.257812 C 160.671875 232.808594 161.039062 232.417969 161.183594 232.203125 Z M 171.226562 234.074219 C 171.375 234.039062 171.527344 234.019531 171.671875 233.996094 C 171.636719 233.941406 171.609375 233.882812 171.582031 233.828125 C 171.472656 233.917969 171.347656 234 171.226562 234.074219 Z M 166.707031 235.171875 C 165.832031 235.15625 164.976562 234.964844 164.296875 234.476562 C 164.28125 234.496094 164.261719 234.511719 164.25 234.527344 C 164.125 234.65625 164.066406 234.765625 164.039062 234.832031 C 164.199219 234.988281 164.589844 235.226562 164.832031 235.378906 C 165.234375 235.628906 165.667969 235.898438 166.066406 236.253906 C 166.316406 235.816406 166.761719 235.503906 167.296875 235.433594 C 167.257812 235.417969 167.21875 235.398438 167.179688 235.382812 C 167.027344 235.316406 166.867188 235.25 166.707031 235.171875 Z M 246.101562 380.972656 C 245.390625 380.671875 244.613281 380.503906 243.773438 380.449219 C 242.90625 381.824219 242.339844 383.394531 242.117188 385.011719 C 244.265625 384.273438 246.378906 383.523438 248.464844 382.761719 C 247.84375 381.996094 247.023438 381.359375 246.101562 380.972656 Z M 217.125 397.242188 C 218.515625 397.070312 219.910156 396.617188 221.367188 396.140625 C 222.710938 395.695312 224.101562 395.246094 225.5625 394.992188 C 225.796875 394.480469 226.054688 393.980469 226.363281 393.515625 C 223.273438 394.417969 220.097656 395.3125 216.824219 396.199219 C 216.929688 396.582031 217.027344 396.9375 217.125 397.242188 Z M 239.742188 380.992188 C 239.167969 381.144531 238.578125 381.289062 237.957031 381.386719 C 237.863281 381.453125 237.761719 381.515625 237.652344 381.566406 C 237.617188 381.585938 237.488281 381.699219 237.21875 382.199219 C 236.367188 383.769531 235.761719 385.457031 235.421875 387.210938 C 235.421875 387.214844 235.417969 387.230469 235.417969 387.238281 C 236.503906 386.886719 237.585938 386.539062 238.652344 386.183594 C 238.703125 384.410156 239.074219 382.640625 239.742188 380.992188 Z M 234.085938 380.980469 C 233.441406 380.699219 232.859375 380.304688 232.371094 379.800781 C 232.035156 379.457031 231.769531 379.082031 231.535156 378.75 C 231.308594 378.429688 231.019531 378.03125 230.847656 377.945312 C 230.796875 377.917969 230.585938 377.925781 230.25 378.089844 C 229.589844 378.421875 229.105469 379.007812 228.964844 379.660156 C 228.765625 380.597656 228.859375 381.152344 229.03125 381.265625 C 229.699219 381.71875 229.945312 382.589844 229.613281 383.328125 C 229.277344 384.066406 228.464844 384.460938 227.675781 384.269531 C 226.613281 384.007812 225.613281 383.796875 225.050781 384.117188 C 224.519531 384.429688 224.136719 385.320312 223.722656 386.269531 C 223.261719 387.34375 222.738281 388.5625 221.761719 389.472656 C 220.585938 390.566406 218.976562 391.03125 217.550781 391.449219 C 217.058594 391.59375 216.589844 391.726562 216.207031 391.875 C 216.054688 391.933594 215.902344 391.992188 215.75 392.046875 C 215.757812 392.078125 215.761719 392.097656 215.765625 392.125 C 215.824219 392.34375 215.894531 392.632812 215.972656 392.957031 C 221.582031 391.4375 226.910156 389.894531 232.003906 388.3125 C 231.941406 387.703125 232.023438 387.121094 232.128906 386.578125 C 232.515625 384.621094 233.175781 382.746094 234.085938 380.980469 Z M 249.859375 385.9375 C 249.847656 385.898438 249.839844 385.867188 249.820312 385.828125 C 244.546875 387.765625 239.050781 389.617188 233.277344 391.421875 C 233.453125 391.460938 233.632812 391.503906 233.804688 391.542969 C 234.894531 391.800781 235.925781 392.042969 236.761719 391.808594 C 240.265625 390.839844 243.785156 389.773438 247.226562 388.640625 C 247.832031 388.441406 249.097656 387.71875 249.828125 387.210938 C 249.917969 387.148438 250.066406 387.042969 250.15625 386.960938 C 250.121094 386.703125 249.960938 386.238281 249.859375 385.9375 Z M 190.640625 386.214844 L 190.730469 386.164062 C 192.277344 385.292969 193.878906 384.402344 195.644531 383.761719 C 195.519531 383.070312 195.523438 382.324219 195.691406 381.574219 C 195.777344 381.175781 195.917969 380.800781 196.050781 380.425781 C 196.15625 380.128906 196.339844 379.632812 196.339844 379.457031 C 196.339844 379.4375 196.335938 379.429688 196.328125 379.410156 C 196.300781 379.394531 196.257812 379.378906 196.195312 379.351562 C 195.734375 379.160156 195.375 379.128906 194.757812 379.511719 C 194.273438 379.816406 193.671875 380.328125 193.578125 381.054688 C 193.476562 381.820312 192.867188 382.417969 192.09375 382.503906 C 191.324219 382.582031 190.597656 382.125 190.335938 381.398438 C 190.253906 381.164062 190.175781 380.914062 190.097656 380.664062 C 189.890625 380.003906 189.683594 379.324219 189.351562 379.121094 C 188.929688 378.867188 188.433594 378.863281 187.582031 378.871094 C 186.484375 378.890625 185.121094 378.90625 183.746094 377.984375 C 182.175781 376.925781 181.617188 375.011719 181.167969 373.472656 C 181.050781 373.0625 180.941406 372.679688 180.816406 372.351562 C 180.8125 372.339844 180.8125 372.328125 180.804688 372.320312 C 180.34375 372.585938 179.726562 372.96875 179.066406 373.394531 C 182.195312 379.460938 185.359375 384.167969 189.414062 387.125 C 189.761719 386.792969 190.167969 386.480469 190.640625 386.214844 Z M 175.363281 376.003906 C 175.753906 378.023438 176.941406 379.539062 178.292969 381.265625 C 179.058594 382.242188 179.851562 383.25 180.511719 384.394531 C 181.066406 384.480469 181.628906 384.574219 182.183594 384.71875 C 180.066406 382.054688 178.148438 378.882812 176.285156 375.304688 C 175.925781 375.570312 175.601562 375.808594 175.363281 376.003906 Z M 192.554688 388.980469 C 193.523438 389.421875 194.539062 389.785156 195.613281 390.054688 C 196.523438 389.03125 197.53125 388.125 198.566406 387.28125 C 198.253906 387.152344 197.929688 386.992188 197.601562 386.769531 C 197.558594 386.757812 197.507812 386.757812 197.464844 386.75 C 197.386719 386.726562 197.335938 386.714844 196.917969 386.859375 C 195.417969 387.375 194.023438 388.152344 192.554688 388.980469 Z M 188.074219 390.34375 C 188.746094 391.464844 189.40625 392.402344 190.429688 392.898438 C 194.105469 394.65625 198.003906 395.671875 202.335938 395.988281 C 202.933594 396.039062 204.363281 395.707031 205.816406 395.199219 L 206.015625 395.132812 C 206.359375 395.019531 206.464844 394.972656 206.519531 394.917969 C 206.664062 394.722656 206.710938 393.980469 206.730469 393.492188 C 204.585938 393.859375 202.578125 394.046875 200.710938 394.046875 C 195.644531 394.042969 191.558594 392.730469 188.074219 390.34375 Z M 202.273438 388.613281 C 201.398438 389.289062 200.566406 389.957031 199.777344 390.648438 C 201.652344 390.734375 203.691406 390.601562 205.910156 390.234375 C 205.570312 389.984375 205.113281 389.738281 204.515625 389.488281 C 203.664062 389.140625 202.957031 388.867188 202.273438 388.613281 Z M 202.273438 388.613281 " fill-opacity="1" fill-rule="nonzero"/></svg>